<svg width="1441" height="973" fill="none" xmlns="http://www.w3.org/2000/svg"><g style="mix-blend-mode:normal" stroke="#727272" stroke-dasharray="6.000000,6.000000"><path d="M1394.752 973V0M1347.752 973V0M1300.752 973V0M1253.752 973V0M1206.752 973V0M1159.752 973V0M1112.752 973V0M1065.752 973V0M1018.752 973V0M971.752 973V0M924.752 973V0M877.752 973V0M830.752 973V0M783.752 973V0M736.752 973V0M689.752 973V0M642.752 973V0M595.752 973V0M548.752 973V0M501.752 973V0M454.752 973V0M407.752 973V0M360.752 973V0M313.752 973V0M266.752 973V0M219.752 973V0M172.752 973V0M125.752 973V0M78.752 973V0M31.752 973V0M0 965h1441M0 918h1441M0 871h1441M0 824h1441M0 777h1441M0 730h1441M0 683h1441M0 636h1441M0 589h1441M0 542h1441M0 495h1441M0 448h1441M0 401h1441M0 354h1441M0 307h1441M0 260h1441M0 213h1441M0 166h1441M0 119h1441M0 72h1441"/></g></svg>