<svg width="32.941" height="11.426" fill="none" xmlns="http://www.w3.org/2000/svg"><path d="M6.03 4.75q-.62-.25-1.36-.25H1.7V1.61h5.58V0H0v11.33h4.67q.74 0 1.36-.24.53-.22.93-.57.09-.07.16-.15.19-.18.33-.38.23-.32.38-.7.26-.64.26-1.38 0-.73-.26-1.36-.17-.46-.47-.82-.11-.14-.24-.27-.12-.13-.26-.24-.37-.29-.83-.47zm19.4 4.21q.3-.76.3-1.68 0-.91-.3-1.67-.24-.63-.66-1.12-.08-.09-.17-.18-.25-.26-.54-.47-.32-.23-.69-.39-.13-.06-.27-.11-.59-.2-1.24-.2t-1.23.2q-.14.05-.28.11-.33.14-.63.34-.33.23-.61.52l-.06.06q-.48.53-.76 1.24-.29.76-.29 1.67 0 .92.29 1.68.27.69.73 1.21.04.05.09.1.25.26.55.46.32.23.69.39.11.05.21.09.62.21 1.3.21.69 0 1.3-.21.11-.04.21-.09.41-.18.76-.43.25-.19.47-.42.11-.11.21-.23.39-.47.62-1.08zm-9.15 2.37v-8.1h-5.76l-.45 5.4q-.07.74-.46 1.07-.33.28-.9.28h-.17v1.35q.07.04.16.06l.18.02q.09.01.19.01.88 0 1.48-.41.2-.13.36-.3.69-.72.77-2.08l.28-3.87h2.7v6.57h1.62zm12.78-6.57h3.88V3.23h-5.5v8.1h1.62V4.76zm-5.14 1.47q.19.47.19 1.05 0 .58-.19 1.06-.19.47-.49.82-.2.23-.44.39-.14.09-.28.16-.33.14-.66.17-.09.01-.19.01-.09 0-.19-.01-.33-.03-.65-.17-.15-.07-.28-.16-.25-.16-.44-.39-.31-.35-.5-.82-.19-.48-.19-1.06 0-.57.19-1.04.19-.49.5-.84.2-.24.46-.4.12-.08.26-.14.33-.15.67-.18.09-.01.17-.01.09 0 .17.01.35.03.68.18.13.06.25.14.26.16.47.4.3.35.49.83zM1.7 9.72V6.11h2.97q.49 0 .86.21.2.11.37.29.11.12.2.25.28.43.28 1.05 0 .62-.27 1.05-.09.14-.21.26-.16.17-.35.28-.38.22-.88.22H1.7z" fill="#212121" fill-rule="evenodd"/></svg>