<svg width="140" height="9" fill="none" xmlns="http://www.w3.org/2000/svg"><path d="M2.44 3.38V2.25H8.4V.3H0v8.43h5.69c.79 0 1.38-.07 1.82-.25.93-.37 1.55-1.27 1.55-2.46 0-1.21-.59-2.04-1.52-2.41-.43-.18-1.01-.23-1.63-.23H2.44zm0 3.22V5.26h3.33c.27 0 .49.01.66.1.2.11.31.3.31.55 0 .25-.12.52-.41.62-.13.06-.32.07-.56.07H2.44zM12.9 5.2V.3h-2.44v8.43h2.16l4.21-4.91v4.91h2.44V.3h-2.15L12.9 5.2zM27.51.3c-.52-.16-1.3-.3-2.38-.3-.96 0-1.83.08-2.68.38-1.06.38-1.75 1.19-1.88 2.29h2.63c.16-.39.38-.58.7-.71.29-.12.63-.18 1.08-.18.51 0 .91.06 1.23.2.44.18.59.5.59.78 0 .34-.15.58-.5.71-.31.09-.59.09-1.08.09h-1.99v1.91h2.14c.71 0 .94.02 1.16.11.27.08.47.31.47.67 0 .34-.15.64-.52.78l-.05.02c-.22.08-.5.19-1.35.19-.62 0-1.04-.11-1.29-.23-.26-.12-.51-.37-.59-.73h-2.7c.13 1.23.83 1.97 1.8 2.34.66.25 1.64.36 2.77.36 1.39 0 2.1-.14 2.68-.32 1.14-.36 1.82-1.22 1.82-2.32 0-.96-.59-1.72-1.62-1.99.84-.37 1.4-1.01 1.4-1.98 0-.94-.64-1.72-1.84-2.07zm9.9 5.29v3.14h2.45V.3h-2.45v3.08h-3.92V.3h-2.44v8.43h2.44V5.59h3.92zM41.71.3h8.15v1.93h-5.71v1.4h5.38v1.68h-5.38V6.8h5.71v1.93h-8.15V.3zm19.16 3.34C60.52 1.55 58.75.07 55.95.07c-3.2-.04-5.17 1.91-5.17 4.46 0 2.52 1.97 4.47 5.17 4.47 2.83-.02 4.53-1.49 4.9-3.6h-2.57c-.26.96-1.15 1.61-2.4 1.61-1.56 0-2.52-1.1-2.52-2.48s.96-2.46 2.52-2.46c1.25 0 2.13.64 2.38 1.57h2.61zm1.47.04h4.08v1.84h-4.08V3.68zm15.71-.04C77.7 1.55 75.93.07 73.13.07c-3.2-.04-5.17 1.91-5.17 4.46 0 2.52 1.97 4.47 5.17 4.47 2.83-.02 4.53-1.49 4.9-3.6h-2.58c-.25.96-1.14 1.61-2.39 1.61-1.56 0-2.53-1.1-2.53-2.48s.97-2.46 2.53-2.46c1.25 0 2.12.64 2.38 1.57h2.61zM87.46.3h-8.15v8.43h8.15V6.8h-5.71V5.31h5.37V3.63h-5.37v-1.4h5.71V.3zm7.64 8.43-2.92-3.19h-.67v3.19h-2.45V.3h2.45v3.17h.67L95.13.3h3.07l-3.91 4.04 4.06 4.39H95.1zM99.32.3v8.43h2.44V6.46h2.58c.6 0 1.19-.02 1.77-.21 1.11-.37 1.93-1.42 1.93-2.84 0-1.41-.8-2.44-1.9-2.85-.61-.23-1.18-.26-1.8-.26h-5.02zm2.44 2.03h2.22c.47 0 .74.06.96.15.39.15.58.53.58.92 0 .42-.22.83-.64.97-.2.07-.44.11-.9.11h-2.22V2.33zM109.22.3h8.16v1.93h-5.71v1.4h5.37v1.68h-5.37V6.8h5.71v1.93h-8.16V.3zm14.92 8.43V2.55h3.47V.3h-9.47v2.25h3.47v6.18h2.53zm10.6-.2c-.47.15-.98.2-1.54.2h-4.75V.3h2.44v2.26h2.31c.61 0 1.25.02 1.79.23 1.13.45 1.84 1.42 1.84 2.82 0 1.47-.83 2.55-2.09 2.92zM137.55.3H140v8.43h-2.45V.3zm-3.82 4.35c-.29-.1-.61-.1-.95-.1h-1.89v2.14h1.89c.42 0 .69 0 .96-.12.39-.18.63-.55.63-.99 0-.43-.24-.78-.64-.93z" fill="#000"/></svg>