<svg width="44" height="44" fill="none" xmlns="http://www.w3.org/2000/svg"><rect rx="9" width="44" height="44" fill="#F0F3F8" style="mix-blend-mode:normal"/><path d="M34.83 23.33V18c0-6.67-2.67-9.34-9.33-9.34h-8c-6.67 0-9.34 2.67-9.34 9.34v8c0 6.66 2.67 9.33 9.34 9.33h5.33" stroke="#1B31FF" stroke-width="1.8" stroke-linejoin="round" stroke-linecap="round"/><path d="m15.27 25.31 3.17-4.12c.46-.58 1.3-.69 1.88-.24l2.44 1.92c.59.46 1.43.35 1.88-.22l3.08-3.98" stroke="#1B31FF" stroke-width="1.8" stroke-linejoin="round" stroke-linecap="round"/><path d="M31.84 27.85c.19.37.65.72 1.07.8l.5.08c1.52.25 1.88 1.37.79 2.48l-.47.47c-.3.32-.48.93-.38 1.36l.06.28c.42 1.84-.56 2.54-2.16 1.58l-.34-.2c-.42-.24-1.08-.24-1.5 0l-.34.2c-1.62.97-2.59.26-2.16-1.58l.06-.28c.1-.43-.08-1.04-.38-1.36l-.47-.47c-1.09-1.11-.73-2.23.79-2.48l.5-.08c.4-.07.88-.43 1.07-.8l.37-.76c.72-1.45 1.9-1.45 2.62 0l.37.76z" stroke="#1B31FF" stroke-width="1.8" stroke-linejoin="round"/></svg>