<svg width="48.000000" height="48.000000" viewBox="0 0 48 48" fill="none" xmlns="http://www.w3.org/2000/svg" xmlns:xlink="http://www.w3.org/1999/xlink">
	<desc>
			Created with Pixso.
	</desc>
	<defs/>
	<path id="Vector" d="M13.77 18C15.74 18.98 17.41 20.45 18.63 22.3C19.33 23.34 19.33 24.68 18.63 25.72C17.41 27.54 15.74 29.02 13.77 30" stroke="#1B31FF" stroke-opacity="1.000000" stroke-width="2.200000" stroke-linejoin="round" stroke-linecap="round"/>
	<path id="Vector" d="M26 30L34 30" stroke="#1B31FF" stroke-opacity="1.000000" stroke-width="2.200000" stroke-linejoin="round" stroke-linecap="round"/>
	<path id="Vector" d="M30 44C40 44 44 40 44 30L44 18C44 8 40 4 30 4L18 4C8 4 4 8 4 18L4 30C4 40 8 44 18 44L30 44Z" stroke="#1B31FF" stroke-opacity="1.000000" stroke-width="2.200000" stroke-linejoin="round"/>
	<g opacity="0.000000"/>
</svg>
