<svg width="24" height="24" fill="none" xmlns="http://www.w3.org/2000/svg"><path d="M20 17.04c-.17-.02-.34-.04-.5-.04-1.39 0-2.5 1.12-2.5 2.5 0 .16.01.33.05.5H6.94c.04-.17.06-.34.06-.5A2.5 2.5 0 0 0 4.5 17c-.17 0-.34.02-.5.04V6.95c.16.02.33.05.5.05C5.88 7 7 5.87 7 4.5c0-.17-.02-.34-.06-.5h10.11c-.04.16-.05.33-.05.5A2.5 2.5 0 0 0 19.5 7c.16 0 .33-.03.5-.05v10.09z" stroke="#1B31FF" stroke-width="1.5" stroke-linejoin="round"/><path d="M4.5 7c-.17 0-.34-.03-.5-.05C2.85 6.72 2 5.7 2 4.5 2 3.12 3.11 2 4.5 2c1.21 0 2.22.85 2.44 2 .04.16.06.33.06.5C7 5.87 5.88 7 4.5 7zM20 6.95c-.17.02-.34.05-.5.05A2.5 2.5 0 0 1 17 4.5c0-.17.01-.34.05-.5.22-1.15 1.23-2 2.45-2A2.5 2.5 0 0 1 22 4.5c0 1.2-.86 2.22-2 2.45zM6.94 20c-.22 1.14-1.23 2-2.44 2A2.5 2.5 0 0 1 2 19.5c0-1.21.85-2.23 2-2.46.16-.02.33-.04.5-.04A2.5 2.5 0 0 1 7 19.5c0 .16-.02.33-.06.5zM19.5 22c-1.22 0-2.23-.86-2.45-2-.04-.17-.05-.34-.05-.5 0-1.38 1.11-2.5 2.5-2.5.16 0 .33.02.5.04 1.14.23 2 1.25 2 2.46 0 1.37-1.12 2.5-2.5 2.5z" stroke="#1B31FF" stroke-width="1.5" stroke-linejoin="round"/></svg>