<svg width="24.000000" height="24.000000" viewBox="0 0 24 24" fill="none" xmlns="http://www.w3.org/2000/svg" xmlns:xlink="http://www.w3.org/1999/xlink">
	<desc>
			Created with Pixso.
	</desc>
	<defs/>
	<path id="Vector" d="M20 17.04C19.83 17.02 19.66 17 19.5 17C18.11 17 17 18.12 17 19.5C17 19.66 17.01 19.83 17.05 20L6.94 20C6.98 19.83 7 19.66 7 19.5C7 18.12 5.88 17 4.5 17C4.33 17 4.16 17.02 4 17.04L4 6.95C4.16 6.97 4.33 7 4.5 7C5.88 7 7 5.87 7 4.5C7 4.33 6.98 4.16 6.94 4L17.05 4C17.01 4.16 17 4.33 17 4.5C17 5.87 18.11 7 19.5 7C19.66 7 19.83 6.97 20 6.95L20 17.04Z" stroke="#1B31FF" stroke-opacity="1.000000" stroke-width="1.500000" stroke-linejoin="round"/>
	<path id="Vector" d="M4.5 7C4.33 7 4.16 6.97 4 6.95C2.85 6.72 2 5.7 2 4.5C2 3.12 3.11 2 4.5 2C5.71 2 6.72 2.85 6.94 4C6.98 4.16 7 4.33 7 4.5C7 5.87 5.88 7 4.5 7Z" stroke="#1B31FF" stroke-opacity="1.000000" stroke-width="1.500000" stroke-linejoin="round"/>
	<path id="Vector" d="M20 6.95C19.83 6.97 19.66 7 19.5 7C18.11 7 17 5.87 17 4.5C17 4.33 17.01 4.16 17.05 4C17.27 2.85 18.28 2 19.5 2C20.88 2 22 3.12 22 4.5C22 5.7 21.14 6.72 20 6.95Z" stroke="#1B31FF" stroke-opacity="1.000000" stroke-width="1.500000" stroke-linejoin="round"/>
	<path id="Vector" d="M6.94 20C6.72 21.14 5.71 22 4.5 22C3.11 22 2 20.87 2 19.5C2 18.29 2.85 17.27 4 17.04C4.16 17.02 4.33 17 4.5 17C5.88 17 7 18.12 7 19.5C7 19.66 6.98 19.83 6.94 20Z" stroke="#1B31FF" stroke-opacity="1.000000" stroke-width="1.500000" stroke-linejoin="round"/>
	<path id="Vector" d="M19.5 22C18.28 22 17.27 21.14 17.05 20C17.01 19.83 17 19.66 17 19.5C17 18.12 18.11 17 19.5 17C19.66 17 19.83 17.02 20 17.04C21.14 17.27 22 18.29 22 19.5C22 20.87 20.88 22 19.5 22Z" stroke="#1B31FF" stroke-opacity="1.000000" stroke-width="1.500000" stroke-linejoin="round"/>
	<g opacity="0.000000"/>
</svg>
