<svg width="24" height="24" fill="none" xmlns="http://www.w3.org/2000/svg"><path d="M20.67 14.62c-.84 3.61-2.5 5.06-5.61 4.77-.5-.04-1.05-.14-1.63-.27l-1.68-.4c-4.17-.99-5.45-3.06-4.48-7.23l.98-4.2c.21-.84.44-1.59.75-2.19 1.16-2.42 3.16-3.08 6.5-2.29l1.66.39c4.19.98 5.48 3.05 4.5 7.23l-.99 4.19z" stroke="#1B31FF" stroke-width="1.5" stroke-linejoin="round"/><path d="m12.71 20.47-1.58.52c-3.97 1.28-6.06.21-7.35-3.76L2.5 13.28C1.22 9.31 2.28 7.2 6.25 5.93l1.58-.52c.41-.13.8-.25 1.17-.31-.3.6-.54 1.35-.75 2.2l-.97 4.19c-.98 4.17.3 6.24 4.47 7.23l1.68.4c.58.14 1.13.23 1.63.27-.63.42-1.4.77-2.35 1.08z" stroke="#1B31FF" stroke-width="1.5" stroke-linejoin="round"/><path d="m12.64 8.52 4.85 1.23M11.66 12.39l2.9.75" stroke="#1B31FF" stroke-width="1.5" stroke-linejoin="round" stroke-linecap="round"/></svg>