<svg width="16" height="16.579" fill="none" xmlns="http://www.w3.org/2000/svg"><defs><clipPath id="a"><rect rx="0" width="15" height="15.579" transform="translate(.5 .5)" fill="#fff" fill-opacity="0"/></clipPath></defs><rect rx="0" width="15" height="15.579" transform="translate(.5 .5)" fill="none"/><g clip-path="url(#a)"><path d="m13.22 5.82-6.4 6.63a.593.593 0 0 1-.43.19c-.07 0-.15-.02-.23-.05a.522.522 0 0 1-.19-.14l-2.8-2.9a.464.464 0 0 1-.13-.2.644.644 0 0 1-.05-.24c0-.08.02-.16.05-.24a.586.586 0 0 1 .32-.33c.08-.03.15-.05.23-.05.08 0 .16.02.23.05.08.03.14.07.2.13l2.38 2.46 5.97-6.19c.11-.11.27-.18.43-.18.15 0 .31.07.42.18.11.12.18.28.18.44 0 .17-.07.33-.18.44z" fill="#FFF"/></g></svg>