<svg width="16.000000" height="16.578796" viewBox="0 0 16 16.5788" fill="none" xmlns="http://www.w3.org/2000/svg" xmlns:xlink="http://www.w3.org/1999/xlink">
	<desc>
			Created with Pixso.
	</desc>
	<defs>
		<clipPath id="clip289_538">
			<rect id="Icons" rx="0.000000" width="15.000000" height="15.578812" transform="translate(0.500000 0.500000)" fill="white" fill-opacity="0"/>
		</clipPath>
	</defs>
	<rect id="Icons" rx="0.000000" width="15.000000" height="15.578812" transform="translate(0.500000 0.500000)" fill="#FFFFFF" fill-opacity="0"/>
	<g clip-path="url(#clip289_538)">
		<path id="Vector" d="M13.22 5.82L6.82 12.45C6.76 12.51 6.7 12.56 6.62 12.59C6.55 12.62 6.47 12.64 6.39 12.64C6.32 12.64 6.24 12.62 6.16 12.59C6.09 12.56 6.02 12.51 5.97 12.45L3.17 9.55C3.11 9.5 3.07 9.43 3.04 9.35C3.01 9.28 2.99 9.19 2.99 9.11C2.99 9.03 3.01 8.95 3.04 8.87C3.07 8.8 3.11 8.73 3.17 8.67C3.23 8.61 3.29 8.57 3.36 8.54C3.44 8.51 3.51 8.49 3.59 8.49C3.67 8.49 3.75 8.51 3.82 8.54C3.9 8.57 3.96 8.61 4.02 8.67L6.4 11.13L12.37 4.94C12.48 4.83 12.64 4.76 12.8 4.76C12.95 4.76 13.11 4.83 13.22 4.94C13.33 5.06 13.4 5.22 13.4 5.38C13.4 5.55 13.33 5.71 13.22 5.82L13.22 5.82Z" fill="#FFFFFF" fill-opacity="1.000000" fill-rule="nonzero"/>
	</g>
</svg>
