<svg width="48.000000" height="48.000000" viewBox="0 0 48 48" fill="none" xmlns="http://www.w3.org/2000/svg" xmlns:xlink="http://www.w3.org/1999/xlink">
	<desc>
			Created with Pixso.
	</desc>
	<defs/>
	<path id="Vector" d="M44 26L44 18C44 8 40 4 30 4L18 4C8 4 4 8 4 18L4 30C4 40 8 44 18 44L26 44" stroke="#1B31FF" stroke-opacity="1.000000" stroke-width="2.200000" stroke-linejoin="round" stroke-linecap="round"/>
	<path id="Vector" d="M14.66 28.98L19.41 22.79C20.1 21.91 21.36 21.76 22.24 22.43L25.9 25.31C26.78 26 28.04 25.83 28.71 24.98L33.33 19.02" stroke="#1B31FF" stroke-opacity="1.000000" stroke-width="2.200000" stroke-linejoin="round" stroke-linecap="round"/>
	<path id="Vector" d="M39.52 32.77C39.8 33.33 40.5 33.85 41.12 33.98L41.88 34.1C44.16 34.48 44.7 36.15 43.06 37.81L42.36 38.52C41.9 39 41.64 39.91 41.78 40.56L41.88 40.98C42.5 43.73 41.04 44.79 38.64 43.35L38.12 43.06C37.5 42.69 36.5 42.69 35.88 43.06L35.36 43.35C32.94 44.81 31.48 43.73 32.12 40.98L32.22 40.56C32.36 39.91 32.1 39 31.64 38.52L30.94 37.81C29.3 36.15 29.84 34.48 32.12 34.1L32.88 33.98C33.48 33.87 34.2 33.33 34.48 32.77L35.04 31.63C36.12 29.46 37.88 29.46 38.96 31.63L39.52 32.77Z" stroke="#1B31FF" stroke-opacity="1.000000" stroke-width="2.200000" stroke-linejoin="round"/>
	<g opacity="0.000000">
		<path id="Vector" d="M0 0L48 0L48 48L0 48L0 0ZM2.2 45.79L2.2 2.2L45.79 2.2L45.79 45.79L2.2 45.79Z" fill="#1B31FF" fill-opacity="1.000000" fill-rule="evenodd"/>
	</g>
</svg>
