<svg width="143.257812" height="11.640625" viewBox="0 0 143.258 11.6406" fill="none" xmlns="http://www.w3.org/2000/svg" xmlns:xlink="http://www.w3.org/1999/xlink">
	<desc>
			Created with Pixso.
	</desc>
	<defs/>
	<path d="M143.25 11.5L141.06 11.5L141.06 3.22Q140.73 3.52 140.38 3.79Q139.42 4.49 138.22 4.89L138.22 2.89C138.8 2.71 139.42 2.35 140.09 1.83Q141.03 1.1 141.42 0.14L141.42 0.13Q141.45 0.07 141.47 0L143.25 0L143.25 11.5ZM12.35 0.04L14.93 0.04L17.6 5.99L19.89 0.04L22.3 0.04L18.43 8.75Q17.8 10.16 17.14 10.9Q16.87 11.21 16.52 11.39Q16.05 11.64 15.45 11.64C14.77 11.64 14.23 11.59 13.85 11.5L13.85 9.78Q14.34 9.82 14.74 9.82C15.27 9.82 15.66 9.72 15.89 9.53C16.12 9.33 16.34 8.91 16.56 8.26L12.35 0.04ZM23.67 0.04L31.7 0.04L31.7 11.5L29.39 11.5L29.39 1.98L25.94 1.98L25.94 6.87C25.94 8.27 25.89 9.25 25.8 9.81C25.71 10.36 25.48 10.79 25.11 11.1Q24.57 11.57 23.42 11.57C23.15 11.57 22.65 11.54 21.94 11.49L21.94 9.7L22.46 9.71C22.94 9.71 23.27 9.64 23.43 9.51Q23.68 9.32 23.68 8.55L23.67 6.58L23.67 0.04ZM47.78 0.04L49.94 0.04L49.94 7.67L54.58 0.04L56.89 0.04L56.89 11.5L54.72 11.5L54.72 4.02L50.09 11.5L47.78 11.5L47.78 0.04ZM60.07 0.04L68.09 0.04L68.09 11.5L65.78 11.5L65.78 1.98L62.33 1.98L62.33 6.87C62.33 8.27 62.28 9.25 62.19 9.81C62.1 10.36 61.87 10.79 61.5 11.1C61.14 11.41 60.58 11.57 59.81 11.57C59.54 11.57 59.04 11.54 58.33 11.49L58.33 9.7L58.85 9.71C59.33 9.71 59.66 9.64 59.82 9.51C59.99 9.38 60.07 9.06 60.07 8.55L60.07 6.58L60.07 0.04ZM70.45 11.5L70.45 0.04L73.91 0.04L75.99 7.85L78.04 0.04L81.51 0.04L81.51 11.5L79.36 11.5L79.36 2.48L77.09 11.5L74.86 11.5L72.6 2.48L72.6 11.5L70.45 11.5ZM83.81 11.5L83.81 0.04L92.3 0.04L92.3 1.98L86.12 1.98L86.12 4.52L91.87 4.52L91.87 6.45L86.12 6.45L86.12 9.57L92.52 9.57L92.52 11.5L83.81 11.5ZM94.49 11.5L94.49 0.04L96.8 0.04L96.8 4.55L101.33 4.55L101.33 0.04L103.64 0.04L103.64 11.5L101.33 11.5L101.33 6.49L96.8 6.49L96.8 11.5L94.49 11.5ZM108.62 11.5L108.62 1.98L105.22 1.98L105.22 0.04L114.32 0.04L114.32 1.98L110.93 1.98L110.93 11.5L108.62 11.5ZM120.39 0.04L122.65 0.04L127.16 7.6L127.16 0.04L129.35 0.04L129.35 11.5L126.99 11.5L122.55 4.14L122.55 11.5L120.39 11.5L120.39 0.04ZM7.26 10.16L7.26 11.5L5 11.5L5 10.16Q2.25 10.06 1.12 8.81Q0.79 8.44 0.56 8.03Q0 7 0 5.67Q0 4.12 0.71 3.06L0.71 3.06Q0.91 2.75 1.17 2.49Q2.35 1.28 5 1.18L5 0.05L7.26 0.05L7.26 1.18Q9.99 1.28 11.12 2.53Q11.43 2.87 11.66 3.25Q12.26 4.29 12.26 5.67Q12.26 7.03 11.68 8.05Q11.45 8.46 11.13 8.82C10.37 9.64 9.08 10.09 7.26 10.16ZM40.89 10.16L40.89 11.5L38.62 11.5L38.62 10.16C36.79 10.09 35.5 9.64 34.75 8.81Q34.42 8.44 34.19 8.03Q33.62 7 33.62 5.67C33.62 4.34 34.01 3.28 34.8 2.49Q35.98 1.28 38.62 1.18L38.62 0.05L40.89 0.05L40.89 1.18C42.7 1.25 43.99 1.7 44.75 2.53C45.51 3.35 45.89 4.4 45.89 5.67C45.89 6.93 45.51 7.98 44.75 8.82C44 9.64 42.71 10.09 40.89 10.16ZM130.08 5.3Q130.08 4.15 130.62 3.37L130.62 3.37Q130.77 3.16 130.95 2.98C131.53 2.4 132.27 2.11 133.17 2.11C134.07 2.11 134.82 2.42 135.4 3.04C135.98 3.66 136.28 4.43 136.28 5.35Q136.28 6.23 135.92 6.92Q135.82 7.12 135.69 7.3Q135.38 7.73 134.92 8.06Q134.27 8.51 133.23 8.51C132.25 8.51 131.48 8.2 130.92 7.58C130.36 6.96 130.08 6.2 130.08 5.3ZM5 8.23L5 3.11Q3.53 3.11 2.89 3.77Q2.24 4.42 2.24 5.74Q2.24 6.86 2.79 7.47Q3.48 8.23 5 8.23ZM7.26 8.23Q8.17 8.23 8.82 7.92C9.25 7.72 9.56 7.45 9.75 7.1Q10.02 6.59 10.02 5.6Q10.02 4.48 9.46 3.87Q8.78 3.11 7.26 3.11L7.26 8.23ZM38.62 8.23L38.62 3.11Q37.16 3.11 36.51 3.77C36.08 4.2 35.86 4.86 35.86 5.74Q35.86 6.86 36.42 7.47Q37.1 8.23 38.62 8.23ZM40.89 8.23C41.49 8.23 42.01 8.13 42.44 7.92C42.88 7.72 43.19 7.45 43.37 7.1C43.55 6.76 43.64 6.26 43.64 5.6Q43.64 4.48 43.09 3.87Q42.41 3.11 40.89 3.11L40.89 8.23ZM132.21 5.5C132.21 6 132.29 6.37 132.45 6.62Q132.54 6.76 132.68 6.85Q132.88 6.99 133.17 6.99C133.51 6.99 133.77 6.83 133.93 6.53C134.1 6.22 134.18 5.76 134.18 5.14Q134.18 4.38 133.95 4C133.8 3.74 133.57 3.61 133.26 3.61C132.91 3.61 132.65 3.77 132.47 4.09C132.3 4.4 132.21 4.87 132.21 5.5ZM130.36 9.26L135.95 9.26L135.95 10.99L130.36 10.99L130.36 9.26Z" fill="#44404D" fill-opacity="1.000000" fill-rule="evenodd"/>
</svg>
