<svg width="32.000000" height="32.000000" viewBox="0 0 32 32" fill="none" xmlns="http://www.w3.org/2000/svg" xmlns:xlink="http://www.w3.org/1999/xlink">
	<desc>
			Created with Pixso.
	</desc>
	<defs>
		<clipPath id="clip426_683">
			<rect id="4781852_burger_line_list_menu_nav_icon 1" rx="0.000000" width="31.000000" height="31.000000" transform="matrix(-1 0 0 1 32.5 0.5)" fill="white" fill-opacity="0"/>
		</clipPath>
	</defs>
	<rect id="4781852_burger_line_list_menu_nav_icon 1" rx="0.000000" width="31.000000" height="31.000000" transform="matrix(-1 0 0 1 32.5 0.5)" fill="#FFFFFF" fill-opacity="0"/>
	<g clip-path="url(#clip426_683)">
		<path id="Vector" d="M4 10L28 10C28.26 10 28.51 9.89 28.7 9.7C28.89 9.51 29 9.26 29 9C29 8.73 28.89 8.48 28.7 8.29C28.51 8.1 28.26 8 28 8L4 8C3.73 8 3.48 8.1 3.29 8.29C3.1 8.48 3 8.73 3 9C3 9.26 3.1 9.51 3.29 9.7C3.48 9.89 3.73 10 4 10Z" fill="#0B0B0B" fill-opacity="1.000000" fill-rule="nonzero"/>
		<path id="Vector" d="M4 17L28 17C28.26 17 28.51 16.89 28.7 16.7C28.89 16.51 29 16.26 29 16C29 15.73 28.89 15.48 28.7 15.29C28.51 15.1 28.26 15 28 15L4 15C3.73 15 3.48 15.1 3.29 15.29C3.1 15.48 3 15.73 3 16C3 16.26 3.1 16.51 3.29 16.7C3.48 16.89 3.73 17 4 17Z" fill="#0B0B0B" fill-opacity="1.000000" fill-rule="nonzero"/>
		<path id="Vector" d="M4 24L28 24C28.26 24 28.51 23.89 28.7 23.7C28.89 23.51 29 23.26 29 23C29 22.73 28.89 22.48 28.7 22.29C28.51 22.1 28.26 22 28 22L4 22C3.73 22 3.48 22.1 3.29 22.29C3.1 22.48 3 22.73 3 23C3 23.26 3.1 23.51 3.29 23.7C3.48 23.89 3.73 24 4 24Z" fill="#0B0B0B" fill-opacity="1.000000" fill-rule="nonzero"/>
	</g>
</svg>
