<svg width="32" height="32" fill="none" xmlns="http://www.w3.org/2000/svg"><defs><clipPath id="a"><rect rx="0" width="31" height="31" transform="translate(.5 .5)" fill="#fff" fill-opacity="0"/></clipPath></defs><rect rx="0" width="31" height="31" transform="translate(.5 .5)" fill="none"/><g clip-path="url(#a)" fill="#0B0B0B"><path d="M28 10H4a1 1 0 0 1-.71-.3A.984.984 0 0 1 3 9a.99.99 0 0 1 1-1h24c.26 0 .51.1.7.29A1 1 0 0 1 29 9c0 .26-.11.51-.3.7-.19.19-.44.3-.7.3zM28 17H4a1 1 0 0 1-.71-.3A.984.984 0 0 1 3 16a.99.99 0 0 1 1-1h24c.26 0 .51.1.7.29a1 1 0 0 1 .3.71c0 .26-.11.51-.3.7-.19.19-.44.3-.7.3zM28 24H4a1 1 0 0 1-.71-.3A.984.984 0 0 1 3 23a.99.99 0 0 1 1-1h24c.26 0 .51.1.7.29a1 1 0 0 1 .3.71c0 .26-.11.51-.3.7-.19.19-.44.3-.7.3z"/></g></svg>