<svg width="44" height="44" fill="none" xmlns="http://www.w3.org/2000/svg"><rect rx="9" width="44" height="44" fill="#F0F3F8" style="mix-blend-mode:normal"/><path d="m18.86 24.4 2.15 1.66c.28.28.9.42 1.32.42h2.64c.83 0 1.73-.63 1.94-1.46l1.67-5.05c.35-.97-.28-1.8-1.32-1.8h-2.77c-.41 0-.76-.35-.69-.83l.34-2.21c.14-.63-.28-1.32-.9-1.52-.57-.22-1.26.07-1.52.48l-2.84 4.23" stroke="#1B31FF" stroke-width="1.8"/><path d="M15.33 17.61c0-.97.41-1.32 1.39-1.32h.69c.97 0 1.39.35 1.39 1.32v6.79c0 .97-.42 1.32-1.39 1.32h-.69c-.98 0-1.39-.35-1.39-1.32v-6.79z" stroke="#1B31FF" stroke-width="1.8" stroke-linejoin="round"/><path d="M28.98 31.14c-1.07 0-2.08.42-2.82 1.16l-2.28 2.26c-1.05 1.02-2.74 1.02-3.78 0l-2.28-2.26A4.014 4.014 0 0 0 15 31.14h-1c-2.22 0-4-1.77-4-3.96V12.64c0-2.19 1.78-3.96 4-3.96h16c2.21 0 4 1.77 4 3.96v14.54c0 2.18-1.79 3.96-4 3.96h-1.02z" stroke="#1B31FF" stroke-width="1.8" stroke-linejoin="round"/></svg>