<svg width="86" height="38" fill="none" xmlns="http://www.w3.org/2000/svg"><g clip-path="url(#a)" fill="#3C57FF"><path d="M44.31 14.89c-1.496-.186-2.543-.279-3.14-.28-.598 0-.983.053-1.158.158a.55.55 0 0 0-.205.213.527.527 0 0 0-.06.285.465.465 0 0 0 .092.295.491.491 0 0 0 .26.178c.236.086.84.214 1.81.385.972.172 1.662.449 2.072.831.41.386.615 1.01.615 1.873 0 1.89-1.212 2.835-3.637 2.835a16.265 16.265 0 0 1-2.895-.316l-.58-.105.074-1.96c1.495.188 2.535.281 3.12.28.586 0 .983-.055 1.196-.165a.55.55 0 0 0 .234-.205.523.523 0 0 0 .082-.295.502.502 0 0 0-.088-.295.528.528 0 0 0-.247-.194c-.223-.106-.802-.234-1.737-.386-.935-.151-1.632-.408-2.09-.77-.459-.362-.688-1.007-.688-1.934s.328-1.627.984-2.097c.65-.473 1.489-.71 2.515-.71.708 0 1.68.112 2.914.333l.597.104-.04 1.942zM48.78 21.456h-2.425V9.206h2.425v6.969l.923-.158 1.792-3.31h2.714l-2.353 4.147 2.48 4.603h-2.73l-1.83-3.413-.994.157-.002 3.255zM55.783 21.456V9.206h2.424v12.25h-2.424zM67.491 15.435v3.641c.003.203.053.403.145.586.072.111.223.19.452.236l-.072 1.768c-.495.01-.99-.034-1.476-.128a3.407 3.407 0 0 1-1.113-.49 6.204 6.204 0 0 1-2.656.613c-1.87 0-2.804-.957-2.804-2.87 0-.933.26-1.596.778-1.987.519-.391 1.316-.621 2.39-.69l1.937-.14v-.544c0-.36-.085-.608-.254-.743-.169-.129-.44-.2-.814-.2l-3.408.147-.071-1.629c1.198-.327 2.437-.5 3.682-.513 1.163 0 2.002.233 2.515.7.514.466.77 1.214.77 2.243zm-4.071 2.312c-.677.059-1.015.41-1.014 1.05.001.642.296.962.885.961a6.027 6.027 0 0 0 1.502-.21l.272-.07v-1.872l-1.645.14zM77.5 9.205v12.25h-2.409v-.367c-.844.386-1.574.578-2.19.578-1.314 0-2.23-.368-2.75-1.103-.519-.735-.778-1.899-.778-3.49 0-1.592.31-2.752.93-3.48.62-.73 1.558-1.095 2.815-1.098.54.017 1.079.075 1.61.175l.344.07V9.206H77.5zm-2.678 10.146.254-.053V14.7a10.333 10.333 0 0 0-1.773-.174c-.974 0-1.461.84-1.461 2.52 0 .91.108 1.558.325 1.942.217.385.576.577 1.077.577a6.468 6.468 0 0 0 1.575-.21l.003-.004zM42.192 25.935c1.267 0 2.193.336 2.778 1.007.586.671.878 1.87.878 3.596 0 1.728-.337 2.92-1.013 3.579-.675.658-1.84.988-3.493.989-.52 0-1.467-.058-2.842-.175l-.688-.07V22.644h2.425v3.761c.773-.313 1.425-.47 1.955-.47zm-.85 7.063c.808 0 1.35-.19 1.628-.569.278-.379.417-1.059.416-2.039 0-1.574-.506-2.362-1.52-2.362a5.269 5.269 0 0 0-1.375.175l-.254.053v4.672c.555.047.924.07 1.105.07zM48.152 27.132c.639-.799 1.706-1.199 3.203-1.2 1.497 0 2.565.4 3.204 1.2.638.799.957 1.922.958 3.369 0 3.067-1.387 4.602-4.162 4.602-2.774.001-4.162-1.533-4.162-4.602-.003-1.446.317-2.57.96-3.369zm1.867 5.353c.249.42.69.63 1.328.63.638 0 1.083-.21 1.328-.63.246-.42.37-1.079.37-1.978s-.123-1.551-.37-1.96c-.247-.408-.691-.612-1.328-.612-.636 0-1.082.204-1.328.612-.245.409-.37 1.062-.37 1.96 0 .898.123 1.552.37 1.978zM62.298 28.138h-2.226v3.588c0 .35.01.598.027.743a.602.602 0 0 0 .199.377c.15.116.34.172.531.158l1.376-.036.109 1.873a9.536 9.536 0 0 1-1.846.257c-1.087 0-1.829-.236-2.226-.709-.398-.472-.597-1.344-.598-2.616v-3.635h-1.062v-1.995h1.062v-2.432h2.425v2.432h2.226l.003 1.995zM63.764 34.893v-2.905h2.605v2.905h-2.605zM68.504 34.893v-8.75h2.406v.927a9.432 9.432 0 0 1 2.897-1.135v2.363c-.974.2-1.813.404-2.516.613l-.362.122v5.862l-2.425-.002zM80.574 26.143h2.425v8.75h-2.406v-.49c-.869.466-1.621.7-2.258.7-1.255 0-2.1-.335-2.533-1.007-.433-.67-.65-1.794-.652-3.368v-4.585h2.425v4.623c0 .864.073 1.454.218 1.769.145.315.495.472 1.05.472.51.003 1.019-.08 1.501-.245l.235-.07-.005-6.549zM12.992 31.039h-.016a1.507 1.507 0 0 1-1.09-.24 1.433 1.433 0 0 1-.392-.401 1.386 1.386 0 0 1-.204-.515L7.466 7.794A3.172 3.172 0 0 0 6.39 5.868c-.483-.4-1.043-.572-1.576-.486H4.79c-1.1.193-2.08 1.079-1.828 2.643l.274 1.147a1.37 1.37 0 0 1-.186 1.068 1.436 1.436 0 0 1-.391.402 1.487 1.487 0 0 1-1.091.242c-.19-.03-.371-.097-.534-.196a1.443 1.443 0 0 1-.415-.378 1.392 1.392 0 0 1-.234-.504L.09 8.572l-.007-.04C-.417 5.643 1.38 3.101 4.27 2.6l.061-.01c1.399-.227 2.805.171 3.96 1.128a5.987 5.987 0 0 1 2.068 3.606l3.825 22.089c.064.368-.026.746-.249 1.05a1.467 1.467 0 0 1-.942.576zM30.566 34.842h-.012l-11.11 1.836a1.502 1.502 0 0 1-1.092-.24 1.41 1.41 0 0 1-.597-.916c-.065-.37.024-.75.248-1.056a1.47 1.47 0 0 1 .948-.577l11.11-1.836c.382-.064.775.02 1.093.236.317.216.534.544.6.914.067.37-.02.75-.243 1.057a1.47 1.47 0 0 1-.945.58v.002zM13.438 38.166c-.173 0-.344-.014-.514-.042a3.057 3.057 0 0 1-1.177-.445 3.167 3.167 0 0 1-1.406-3.242c.314-1.72 1.97-2.891 3.689-2.61.417.065.817.217 1.176.445.36.23.67.53.914.887.231.338.394.72.479 1.126.084.404.09.823.014 1.23a3.24 3.24 0 0 1-3.175 2.65zm.074-4.757a1.602 1.602 0 0 0-1.044.364 1.702 1.702 0 0 0-.584.967 1.502 1.502 0 0 0 .695 1.558c.18.114.381.188.59.22.89.145 1.742-.44 1.9-1.309a1.503 1.503 0 0 0-.695-1.559 1.668 1.668 0 0 0-.863-.241zM27.532 8.143l-1.195-6.722A1.439 1.439 0 0 0 25.714.5 1.531 1.531 0 0 0 24.6.272l-11.564 1.91h-.014a1.532 1.532 0 0 0-.96.571 1.342 1.342 0 0 0-.266 1.07l1.196 6.722c.073.374.297.705.622.92.326.216.726.298 1.113.229l11.567-1.908h.014c.396-.067.749-.283.981-.6a1.36 1.36 0 0 0 .243-1.043zM16.428 22.053l11.564-1.911h.014c.396-.066.749-.282.981-.599a1.365 1.365 0 0 0 .247-1.041L28.04 11.78a1.44 1.44 0 0 0-.62-.925 1.532 1.532 0 0 0-1.116-.23L14.74 12.538h-.013a1.533 1.533 0 0 0-.982.599 1.364 1.364 0 0 0-.247 1.041l1.196 6.722c.072.375.296.707.621.923a1.53 1.53 0 0 0 1.114.229zM30.949 28.916l-1.195-6.723a1.44 1.44 0 0 0-.622-.92 1.532 1.532 0 0 0-1.111-.229l-11.569 1.912h-.013a1.545 1.545 0 0 0-.551.204 1.495 1.495 0 0 0-.429.394 1.365 1.365 0 0 0-.247 1.042l1.195 6.721c.074.375.298.706.624.921.325.216.726.298 1.113.229l11.563-1.909h.015c.395-.066.748-.282.98-.598a1.364 1.364 0 0 0 .247-1.044z"/></g><defs><clipPath id="a"><path fill="#fff" d="M0 0h86v38H0z"/></clipPath></defs></svg>