<svg width="32" height="32" fill="none" xmlns="http://www.w3.org/2000/svg"><path d="M23.97 19.71c0 .35-.02.69-.06 1.01-.3 3.6-2.42 5.38-6.33 5.38h-.53c-.34 0-.66.16-.86.43l-1.6 2.13c-.7.95-1.85.95-2.56 0l-1.6-2.13c-.17-.23-.56-.43-.85-.43h-.53c-4.26 0-6.39-1.05-6.39-6.39v-5.33c0-3.9 1.8-6.03 5.39-6.33.32-.04.65-.05 1-.05h8.53c4.25 0 6.39 2.13 6.39 6.38v5.33z" stroke="#1B31FF" stroke-width="1.8" stroke-linejoin="round"/><path d="M29.3 14.38c0 3.92-1.8 6.03-5.39 6.33.04-.32.06-.65.06-1v-5.33c0-4.25-2.14-6.39-6.39-6.39H9.05c-.35 0-.68.02-1 .06.3-3.59 2.42-5.39 6.33-5.39h8.53c4.26 0 6.39 2.13 6.39 6.39v5.33z" stroke="#1B31FF" stroke-width="1.8" stroke-linejoin="round"/><path d="M17.99 17.66H18M13.32 17.66h.01M8.66 17.66h.01" stroke="#1B31FF" stroke-width="1.8" stroke-linejoin="round" stroke-linecap="round"/></svg>