<svg width="48" height="48" fill="none" xmlns="http://www.w3.org/2000/svg"><path d="M44 20v6c0 8-4 12-12 12h-1c-.62 0-1.23.3-1.6.8l-3 4c-1.32 1.76-3.49 1.76-4.81 0l-3-4c-.32-.44-1.06-.8-1.59-.8h-1C8 38 4 36 4 26V16C4 8 8 4 16 4h12" stroke="#1B31FF" stroke-width="2.2" stroke-linejoin="round" stroke-linecap="round"/><path d="M39 14c-2.77 0-5-2.24-5-5 0-2.77 2.23-5 5-5 2.76 0 5 2.23 5 5 0 2.76-2.24 5-5 5z" stroke="#1B31FF" stroke-width="2.2" stroke-linejoin="round"/><path d="M31.99 22h.02M23.99 22H24M15.98 22H16" stroke="#1B31FF" stroke-width="2.2" stroke-linejoin="round" stroke-linecap="round"/></svg>