<svg width="32.000000" height="32.000000" viewBox="0 0 32 32" fill="none" xmlns="http://www.w3.org/2000/svg" xmlns:xlink="http://www.w3.org/1999/xlink">
	<desc>
			Created with Pixso.
	</desc>
	<defs/>
	<path id="Vector" d="M11.9 2.66L11.94 4.7C11.97 5.78 12.86 6.66 13.94 6.66L17.97 6.66C19.08 6.66 19.97 5.75 19.97 4.66L19.97 2.66" stroke="#1B31FF" stroke-opacity="1.000000" stroke-width="1.800000" stroke-linejoin="round" stroke-linecap="round"/>
	<path id="Vector" d="M22.66 22.66L20 25.33L22.66 27.99" stroke="#1B31FF" stroke-opacity="1.000000" stroke-width="1.800000" stroke-linejoin="round" stroke-linecap="round"/>
	<path id="Vector" d="M26.66 22.66L29.33 25.33L26.66 27.99" stroke="#1B31FF" stroke-opacity="1.000000" stroke-width="1.800000" stroke-linejoin="round" stroke-linecap="round"/>
	<path id="Vector" d="M17.33 29.33L10.66 29.33C6 29.33 4 26.66 4 22.66L4 9.33C4 5.33 6 2.66 10.66 2.66L21.33 2.66C26 2.66 28 5.33 28 9.33L28 18.66" stroke="#1B31FF" stroke-opacity="1.000000" stroke-width="1.800000" stroke-linejoin="round" stroke-linecap="round"/>
	<g opacity="0.000000"/>
</svg>
