<svg width="48" height="48" fill="none" xmlns="http://www.w3.org/2000/svg"><path d="M44 23.78v1.78c0 7.12-1.78 8.87-8.89 8.87H12.88C5.77 34.43 4 32.66 4 25.56V12.88C4 5.78 5.77 4 12.88 4H16M24 34.43v9.56M4 26h40M15 44h18" stroke="#1B31FF" stroke-width="2.2" stroke-linejoin="round" stroke-linecap="round"/><path d="M26.19 18.74c-2.76 0-3.68-1.84-3.68-3.68V8.02c0-2.2 1.81-4 4-4h9.2c2.04 0 3.69 1.64 3.69 3.68v7.36c0 2.04-1.65 3.68-3.69 3.68h-9.52zM39.4 14.14V8.61l2.42-1.7C43.01 6.09 44 6.59 44 8.05v6.67c0 1.45-.99 1.95-2.18 1.12l-2.42-1.7z" stroke="#1B31FF" stroke-width="2.2" stroke-linejoin="round"/></svg>