<svg width="172" height="172" fill="none" xmlns="http://www.w3.org/2000/svg"><defs><clipPath id="b"><rect rx="35.921" width="71.843" height="71.843" transform="translate(50.079 46.079)" fill="#fff" fill-opacity="0"/></clipPath><filter id="a" x="0" y="0" width="172" height="172" filterUnits="userSpaceOnUse" color-interpolation-filters="sRGB"><feFlood flood-opacity="0" result="BackgroundImageFix"/><feColorMatrix in="SourceAlpha" values="0 0 0 0 0 0 0 0 0 0 0 0 0 0 0 0 0 0 127 0" result="hardAlpha"/><feOffset dy="4"/><feGaussianBlur stdDeviation="16.667"/><feComposite in2="hardAlpha" operator="out" k2="-1" k3="1"/><feColorMatrix values="0 0 0 0 0.35294 0 0 0 0 0.36471 0 0 0 0 0.99216 0 0 0 1 0"/><feBlend in2="BackgroundImageFix" result="effect_dropShadow_1"/><feBlend in="SourceGraphic" in2="effect_dropShadow_1" result="shape"/></filter></defs><g filter="url(#a)"><g clip-path="url(#b)"><circle r="36" transform="matrix(1 0 0 1 85.998 82)" fill="#1B31FF" opacity=".9"/><path d="M80.84 66.65c-.51-.32-1.11-.49-1.69-.49-1.86 0-3.24 1.59-3.24 3.39v24.89c0 1.81 1.39 3.4 3.24 3.4.59 0 1.17-.17 1.69-.5l19.44-12.45c.96-.62 1.55-1.71 1.55-2.89 0-1.19-.59-2.28-1.55-2.9L80.84 66.65z" fill="#FFF" opacity=".9"/></g></g></svg>