<svg width="172.000000" height="172.000000" viewBox="0 0 172 172" fill="none" xmlns="http://www.w3.org/2000/svg" xmlns:xlink="http://www.w3.org/1999/xlink">
	<desc>
			Created with Pixso.
	</desc>
	<defs>
		<filter id="filter_260_2270_dd" x="0.000000" y="0.000000" width="172.000000" height="172.000000" filterUnits="userSpaceOnUse" color-interpolation-filters="sRGB">
			<feFlood flood-opacity="0" result="BackgroundImageFix"/>
			<feColorMatrix in="SourceAlpha" type="matrix" values="0 0 0 0 0 0 0 0 0 0 0 0 0 0 0 0 0 0 127 0" result="hardAlpha"/>
			<feOffset dx="0" dy="4"/>
			<feGaussianBlur stdDeviation="16.6667"/>
			<feComposite in2="hardAlpha" operator="out" k2="-1" k3="1"/>
			<feColorMatrix type="matrix" values="0 0 0 0 0.35294 0 0 0 0 0.36471 0 0 0 0 0.99216 0 0 0 1 0"/>
			<feBlend mode="normal" in2="BackgroundImageFix" result="effect_dropShadow_1"/>
			<feBlend mode="normal" in="SourceGraphic" in2="effect_dropShadow_1" result="shape"/>
		</filter>
		<clipPath id="clip260_2270">
			<rect id="Play" rx="35.921303" width="71.842606" height="71.842606" transform="translate(50.078697 46.078697)" fill="white" fill-opacity="0"/>
		</clipPath>
	</defs>
	<g filter="url(#filter_260_2270_dd)">
		<g clip-path="url(#clip260_2270)">
			<g opacity="0.900000">
				<circle id="Ellipse 84" r="36.000000" transform="matrix(1 6.96973e-18 -6.90819e-18 1 85.998 82)" fill="#1B31FF" fill-opacity="1.000000"/>
			</g>
			<g opacity="0.900000">
				<path id="Vector" d="M80.84 66.65C80.33 66.33 79.73 66.16 79.15 66.16C77.29 66.16 75.91 67.75 75.91 69.55L75.91 94.44C75.91 96.25 77.3 97.84 79.15 97.84C79.74 97.84 80.32 97.67 80.84 97.34L100.28 84.89C101.24 84.27 101.83 83.18 101.83 82C101.83 80.81 101.24 79.72 100.28 79.1L80.84 66.65Z" fill="#FFFFFF" fill-opacity="1.000000" fill-rule="nonzero"/>
			</g>
		</g>
	</g>
</svg>
