<svg width="133" height="20" fill="none" xmlns="http://www.w3.org/2000/svg"><defs><clipPath id="a"><rect rx="0" width="19" height="19" transform="matrix(-1 0 0 1 20.5 .5)" fill="#fff" fill-opacity="0"/></clipPath></defs><rect rx="0" width="19" height="19" transform="matrix(-1 0 0 1 20.5 .5)" fill="none"/><g clip-path="url(#a)"><mask id="b" mask-type="alpha" maskUnits="userSpaceOnUse" x="0" y="0" width="20" height="20"><path d="M14 0H6C2.68 0 0 2.68 0 6v8c0 3.31 2.68 6 6 6h8c3.31 0 6-2.69 6-6V6c0-3.32-2.69-6-6-6z" fill="#000" fill-rule="evenodd"/></mask><g mask="url(#b)"><path d="M14 0H6C2.68 0 0 2.68 0 6v8c0 3.31 2.68 6 6 6h8c3.31 0 6-2.69 6-6V6c0-3.32-2.69-6-6-6z" fill="#4061D4" fill-rule="evenodd"/><path d="M-19.76 16.43c0 7.12 13.32 12.88 29.76 12.88 16.43 0 29.75-5.76 29.75-12.88C39.75 9.32 26.43 3.55 10 3.55c-16.44 0-29.76 5.77-29.76 12.88z" fill="#FFF" fill-opacity=".2" fill-rule="evenodd" style="mix-blend-mode:soft-light"/><path d="M-1.41 22.43c0 5.77 5.11 10.44 11.41 10.44 6.29 0 11.4-4.67 11.4-10.44C21.4 16.67 16.29 12 10 12 3.7 12-1.41 16.67-1.41 22.43z" fill="#FFF" fill-opacity=".56" fill-rule="evenodd" style="mix-blend-mode:soft-light"/><path d="M-5.45 17.99c0 5.77 6.92 10.44 15.45 10.44 8.52 0 15.43-4.67 15.43-10.44 0-5.76-6.91-10.44-15.43-10.44-8.53 0-15.45 4.68-15.45 10.44z" fill="#FFF" fill-opacity=".36" fill-rule="evenodd" style="mix-blend-mode:soft-light"/><path d="M4.72 20c0 2.82 2.29 5.11 5.12 5.11 2.82 0 5.12-2.29 5.12-5.11 0-2.83-2.3-5.13-5.12-5.13-2.83 0-5.12 2.3-5.12 5.13z" fill="#FFF" fill-opacity=".68" fill-rule="evenodd" style="mix-blend-mode:soft-light"/></g></g><path d="M34.25 4.48h-5.01v11.43h1.52v-4.67h3.49c1.15.01 2.02-.29 2.61-.88.6-.6.89-1.43.89-2.5q0-1.4-.68-2.24-.1-.13-.21-.24l-.07-.07q-.88-.83-2.54-.83zm25.41 11.43h1.36V4.48h-1.36v4.26h-.03q-.17-.28-.41-.49-.07-.06-.15-.12c-.21-.17-.44-.3-.69-.4-.24-.11-.49-.18-.74-.22-.24-.05-.47-.07-.68-.07-.63 0-1.19.12-1.67.36q-.43.2-.78.51-.22.19-.4.41c-.31.39-.55.84-.71 1.36-.14.53-.22 1.08-.22 1.67 0 .58.08 1.14.24 1.66q.24.79.7 1.38.16.19.34.35.37.35.85.59c.48.24 1.04.35 1.68.35.57 0 1.1-.1 1.58-.3.48-.2.83-.53 1.06-.99h.03v1.12zM95.7 4.48h-5.38v11.43h1.52v-4.88h3.71c.38 0 .68.06.9.17.22.11.4.26.54.45.14.18.24.4.31.66.06.24.11.5.16.78s.08.56.09.85c.01.29.02.56.04.82.01.24.03.46.06.67.04.2.12.36.22.48h1.7c-.16-.19-.28-.41-.37-.66a6.27 6.27 0 0 1-.17-.8c-.05-.28-.07-.56-.08-.85-.02-.28-.03-.57-.05-.84a4.93 4.93 0 0 0-.15-.8c-.05-.26-.14-.49-.27-.69-.12-.22-.28-.4-.49-.55-.21-.15-.47-.25-.8-.32v-.03c.69-.19 1.19-.55 1.5-1.07.32-.52.48-1.13.48-1.82q0-.95-.43-1.62-.2-.32-.5-.58-.91-.8-2.54-.8zm19.98 11.43h1.36V4.48h-1.36v4.26h-.04c-.14-.25-.33-.45-.56-.61-.21-.17-.44-.3-.68-.4-.25-.11-.49-.18-.74-.22-.24-.05-.47-.07-.69-.07q-.94 0-1.66.36-.44.2-.79.51-.21.19-.4.41c-.3.39-.54.84-.7 1.36q-.22.79-.22 1.67c0 .58.08 1.14.24 1.66q.24.79.7 1.38.15.19.33.35.38.35.85.59c.48.24 1.04.35 1.68.35q.87 0 1.59-.3c.48-.2.83-.53 1.05-.99h.04v1.12zM84.13 7.64h-1.64V5.16h-1.36v2.48h-1.41v1.2h1.41v5.26c0 .38.03.69.11.93.07.23.18.41.33.54q.24.19.61.27c.26.05.56.07.91.07h1.04v-1.2h-.62c-.21 0-.39-.01-.53-.02a.698.698 0 0 1-.3-.11.398.398 0 0 1-.16-.22c-.02-.1-.03-.23-.03-.39V8.84h1.64v-1.2zM33.74 9.96h-2.98v-4.2h2.98q1.3 0 1.89.55.1.09.19.2.42.5.42 1.35 0 .84-.41 1.35-.09.12-.2.22-.59.54-1.89.53zm62.28-.29c-.32.05-.66.08-1.01.08h-3.17V5.76h3.78q1.05 0 1.53.53l.02.02c.32.36.48.83.48 1.41q0 .62-.22 1.02c-.14.26-.34.46-.58.62-.24.15-.51.25-.83.31zM40.63 7.64h-1.28v8.27h1.36v-3.68q0-.8.16-1.41c.1-.42.27-.77.51-1.06.23-.29.54-.5.93-.65.38-.15.84-.23 1.39-.23V7.44c-.74-.02-1.35.13-1.83.45s-.88.82-1.21 1.49h-.03V7.64zm88.32 0h-1.28v8.27h1.36v-3.68c0-.54.06-1.01.16-1.41.11-.42.28-.77.52-1.06.23-.29.54-.5.92-.65.39-.15.85-.23 1.4-.23V7.44c-.74-.02-1.35.13-1.83.45s-.88.82-1.21 1.49h-.04V7.64zm-84.7 2.44c-.17.53-.26 1.09-.26 1.7 0 .61.09 1.17.26 1.7.17.52.43.98.77 1.37q.07.08.14.15.47.47 1.12.76c.5.22 1.08.32 1.73.32q.99 0 1.73-.32.65-.29 1.12-.76.07-.07.14-.15c.34-.39.6-.85.77-1.37.17-.53.25-1.09.25-1.7 0-.61-.08-1.17-.25-1.7-.17-.53-.43-.99-.77-1.37q-.12-.14-.25-.26-.44-.41-1.01-.67c-.49-.22-1.07-.34-1.73-.34-.65 0-1.23.12-1.73.34q-.58.26-1.01.67-.13.12-.25.26c-.34.38-.6.84-.77 1.37zm32.7-1c.34.28.56.69.67 1.21h1.41c-.06-.49-.18-.91-.39-1.26q-.22-.41-.55-.71-.11-.1-.23-.19-.46-.35-1.09-.51c-.4-.12-.84-.18-1.31-.18-.65 0-1.22.12-1.71.36-.49.22-.9.53-1.23.94-.32.39-.56.86-.72 1.41-.16.53-.24 1.11-.24 1.73 0 .61.08 1.18.24 1.71.17.51.41.95.73 1.33.33.37.74.66 1.22.86.49.2 1.05.3 1.68.3 1.05 0 1.89-.27 2.49-.83.62-.55 1.01-1.34 1.16-2.37h-1.4c-.08.64-.32 1.14-.7 1.49q-.03.03-.07.06-.55.47-1.5.47-.64 0-1.1-.26c-.31-.17-.56-.39-.75-.67-.2-.29-.34-.61-.44-.97-.08-.37-.12-.74-.12-1.12 0-.42.04-.82.12-1.2.09-.4.23-.75.42-1.04.2-.3.47-.54.8-.72.33-.19.74-.28 1.23-.28q.85 0 1.36.42l.02.02zm30.45 7q.63 0 .98-.2v-1.06c-.16.05-.3.08-.42.08q-.22 0-.32-.11-.04-.05-.06-.11c-.03-.15-.05-.39-.05-.71V9.72c0-.48-.09-.87-.27-1.17-.18-.3-.42-.53-.72-.69-.3-.17-.64-.28-1.01-.34-.36-.05-.73-.08-1.1-.08-.47 0-.92.05-1.33.15-.41.09-.77.25-1.09.48-.32.21-.58.49-.77.85q-.29.52-.32 1.29h1.36c.03-.61.24-1.02.63-1.23.38-.22.86-.34 1.44-.34q.32 0 .64.05c.22.03.42.1.59.19.18.1.32.24.43.42.12.18.18.42.18.72 0 .26-.08.45-.23.59-.15.13-.35.23-.61.31q-.38.09-.89.16c-.33.03-.68.08-1.06.16-.35.06-.7.14-1.04.24-.33.09-.63.24-.89.43-.26.18-.47.42-.63.72-.16.3-.24.68-.24 1.15 0 .42.07.77.21 1.07.15.29.35.52.59.71.25.18.54.31.87.4.34.08.7.12 1.07.12.57 0 1.11-.09 1.6-.28.5-.21.94-.53 1.31-.98q0 .67.3.98c.22.19.5.28.85.28zm18.08 0q.62 0 .98-.2v-1.06c-.16.05-.3.08-.42.08q-.23 0-.32-.11-.04-.05-.06-.11c-.04-.15-.05-.39-.05-.71V9.72c0-.48-.09-.87-.27-1.17-.18-.3-.42-.53-.72-.69-.3-.17-.64-.28-1.01-.34-.36-.05-.73-.08-1.11-.08-.46 0-.91.05-1.32.15-.41.09-.77.25-1.09.48-.32.21-.58.49-.77.85q-.29.52-.32 1.29h1.36c.03-.61.24-1.02.62-1.23.39-.22.87-.34 1.44-.34q.32 0 .64.05c.23.03.43.1.6.19.18.1.32.24.43.42.12.18.17.42.17.72 0 .26-.07.45-.22.59-.15.13-.35.23-.61.31q-.38.09-.89.16c-.33.03-.69.08-1.06.16-.35.06-.7.14-1.04.24-.33.09-.63.24-.9.43-.25.18-.46.42-.62.72-.16.3-.24.68-.24 1.15 0 .42.07.77.21 1.07.15.29.35.52.59.71.25.18.53.31.86.4.35.08.7.12 1.08.12.57 0 1.11-.09 1.6-.28.5-.21.94-.53 1.31-.98q0 .67.3.98c.22.19.5.28.85.28zm-56.8-.17h1.28V7.64H68.6v4.67q0 .56-.16 1.04c-.1.31-.24.58-.45.81-.2.24-.46.42-.77.55-.29.13-.65.19-1.07.19-.52 0-.93-.15-1.23-.45-.3-.3-.45-.7-.45-1.21v-5.6h-1.36v5.44q0 .67.13 1.23.13.48.4.84l.08.1c.22.27.52.48.88.63.36.13.82.2 1.36.2q.91 0 1.58-.35.05-.02.09-.05.61-.37 1.02-1.08h.03v1.31zm-23.06-2.79c-.12-.39-.19-.84-.19-1.34 0-.5.07-.94.19-1.33q.21-.59.56-.99c.24-.27.51-.47.82-.61.32-.14.66-.21 1.01-.21s.68.07.99.21c.32.14.6.34.83.61.24.27.42.6.55.99.14.39.2.83.2 1.33q0 .75-.2 1.34-.2.58-.55.98c-.23.26-.51.45-.83.59-.31.14-.64.21-.99.21s-.69-.07-1.01-.21c-.31-.14-.58-.33-.82-.59q-.35-.4-.56-.98zm9.14-.14c-.09-.37-.14-.75-.14-1.14 0-.4.04-.8.13-1.18q.13-.58.41-1.02c.2-.3.45-.54.77-.72.32-.19.71-.28 1.17-.28q.7 0 1.2.28c.33.17.6.4.8.68.21.29.37.63.46 1.01.1.37.15.76.15 1.17q0 .25-.03.5-.03.32-.12.64c-.08.37-.22.7-.43 1-.2.29-.46.53-.78.71-.32.18-.71.27-1.17.27-.44 0-.82-.09-1.15-.26-.32-.17-.59-.4-.8-.68-.2-.29-.36-.62-.47-.98zm56.02 0c-.1-.37-.14-.75-.14-1.14 0-.4.04-.8.12-1.18.09-.38.23-.73.42-1.02.19-.3.45-.54.77-.72.32-.19.71-.28 1.17-.28.47 0 .87.09 1.2.28.33.17.59.4.8.68.21.29.36.63.46 1.01.1.37.14.76.14 1.17 0 .38-.04.76-.14 1.14-.08.37-.23.7-.43 1-.2.29-.47.53-.79.71-.32.18-.7.27-1.16.27-.44 0-.82-.09-1.16-.26-.32-.17-.58-.4-.8-.68-.2-.29-.35-.62-.46-.98zm-5.28-1.06c.28-.06.5-.16.67-.28v1.39c0 .19-.05.4-.14.62-.1.21-.25.42-.45.61-.2.18-.47.34-.79.46-.32.12-.7.18-1.15.18-.21 0-.41-.02-.61-.06a1.95 1.95 0 0 1-.51-.21c-.14-.1-.25-.22-.35-.37-.08-.16-.13-.35-.13-.58 0-.34.08-.6.23-.8.16-.2.36-.35.6-.46.25-.11.53-.18.84-.22.31-.06.61-.1.91-.13.31-.05.6-.09.88-.15zm18.08 0c.27-.06.5-.16.67-.28v1.39c0 .19-.05.4-.15.62-.09.21-.24.42-.44.61-.21.18-.47.34-.79.46-.32.12-.7.18-1.15.18-.21 0-.42-.02-.61-.06a1.95 1.95 0 0 1-.51-.21c-.14-.1-.26-.22-.35-.37-.09-.16-.13-.35-.13-.58 0-.34.08-.6.22-.8.16-.2.37-.35.61-.46.25-.11.53-.18.83-.22.31-.06.62-.1.92-.13.31-.05.6-.09.88-.15z" fill="#0B0B0B" fill-rule="evenodd"/></svg>