<svg width="133.000000" height="20.000000" viewBox="0 0 133 20" fill="none" xmlns="http://www.w3.org/2000/svg" xmlns:xlink="http://www.w3.org/1999/xlink">
	<desc>
			Created with Pixso.
	</desc>
	<defs>
		<clipPath id="clip260_3109">
			<rect id="svg-gobbler (1) 1" rx="0.000000" width="19.000000" height="19.000000" transform="matrix(-1 0 0 1 20.5 0.5)" fill="white" fill-opacity="0"/>
		</clipPath>
	</defs>
	<rect id="svg-gobbler (1) 1" rx="0.000000" width="19.000000" height="19.000000" transform="matrix(-1 0 0 1 20.5 0.5)" fill="#FFFFFF" fill-opacity="0"/>
	<g clip-path="url(#clip260_3109)">
		<mask id="mask260_3111" mask-type="alpha" maskUnits="userSpaceOnUse" x="0.000000" y="0.000000" width="20.000000" height="20.000000">
			<path id="Vector" d="M14 0L6 0C2.68 0 0 2.68 0 6L0 14C0 17.31 2.68 20 6 20L14 20C17.31 20 20 17.31 20 14L20 6C20 2.68 17.31 0 14 0Z" fill="#000000" fill-opacity="1.000000" fill-rule="evenodd"/>
		</mask>
		<g mask="url(#mask260_3111)">
			<path id="Vector" d="M14 0L6 0C2.68 0 0 2.68 0 6L0 14C0 17.31 2.68 20 6 20L14 20C17.31 20 20 17.31 20 14L20 6C20 2.68 17.31 0 14 0Z" fill="#4061D4" fill-opacity="1.000000" fill-rule="evenodd"/>
			<g style="mix-blend-mode:soft-light">
				<path id="Vector" d="M-19.76 16.43C-19.76 23.55 -6.44 29.31 10 29.31C26.43 29.31 39.75 23.55 39.75 16.43C39.75 9.32 26.43 3.55 10 3.55C-6.44 3.55 -19.76 9.32 -19.76 16.43Z" fill="#FFFFFF" fill-opacity="0.200000" fill-rule="evenodd"/>
			</g>
			<g style="mix-blend-mode:soft-light">
				<path id="Vector" d="M-1.41 22.43C-1.41 28.2 3.7 32.87 10 32.87C16.29 32.87 21.4 28.2 21.4 22.43C21.4 16.67 16.29 12 10 12C3.7 12 -1.41 16.67 -1.41 22.43Z" fill="#FFFFFF" fill-opacity="0.560000" fill-rule="evenodd"/>
			</g>
			<g style="mix-blend-mode:soft-light">
				<path id="Vector" d="M-5.45 17.99C-5.45 23.76 1.47 28.43 10 28.43C18.52 28.43 25.43 23.76 25.43 17.99C25.43 12.23 18.52 7.55 10 7.55C1.47 7.55 -5.45 12.23 -5.45 17.99Z" fill="#FFFFFF" fill-opacity="0.360000" fill-rule="evenodd"/>
			</g>
			<g style="mix-blend-mode:soft-light">
				<path id="Vector" d="M4.72 20C4.72 22.82 7.01 25.11 9.84 25.11C12.66 25.11 14.96 22.82 14.96 20C14.96 17.17 12.66 14.87 9.84 14.87C7.01 14.87 4.72 17.17 4.72 20Z" fill="#FFFFFF" fill-opacity="0.680000" fill-rule="evenodd"/>
			</g>
		</g>
	</g>
	<path id="Product Radar" d="M34.25 4.48L29.24 4.48L29.24 15.91L30.76 15.91L30.76 11.24L34.25 11.24C35.4 11.25 36.27 10.95 36.86 10.36C37.46 9.76 37.75 8.93 37.75 7.86Q37.75 6.46 37.07 5.62Q36.97 5.49 36.86 5.38Q36.83 5.35 36.79 5.31Q35.91 4.48 34.25 4.48ZM59.66 15.91L61.02 15.91L61.02 4.48L59.66 4.48L59.66 8.74L59.63 8.74Q59.46 8.46 59.22 8.25Q59.15 8.19 59.07 8.13C58.86 7.96 58.63 7.83 58.38 7.73C58.14 7.62 57.89 7.55 57.64 7.51C57.4 7.46 57.17 7.44 56.96 7.44C56.33 7.44 55.77 7.56 55.29 7.8Q54.86 8 54.51 8.31Q54.29 8.5 54.11 8.72C53.8 9.11 53.56 9.56 53.4 10.08C53.26 10.61 53.18 11.16 53.18 11.75C53.18 12.33 53.26 12.89 53.42 13.41Q53.66 14.2 54.12 14.79Q54.28 14.98 54.46 15.14Q54.83 15.49 55.31 15.73C55.79 15.97 56.35 16.08 56.99 16.08C57.56 16.08 58.09 15.98 58.57 15.78C59.05 15.58 59.4 15.25 59.63 14.79L59.66 14.79L59.66 15.91ZM95.7 4.48L90.32 4.48L90.32 15.91L91.84 15.91L91.84 11.03L95.55 11.03C95.93 11.03 96.23 11.09 96.45 11.2C96.67 11.31 96.85 11.46 96.99 11.65C97.13 11.83 97.23 12.05 97.3 12.31C97.36 12.55 97.41 12.81 97.46 13.09C97.51 13.37 97.54 13.65 97.55 13.94C97.56 14.23 97.57 14.5 97.59 14.76C97.6 15 97.62 15.22 97.65 15.43C97.69 15.63 97.77 15.79 97.87 15.91L99.57 15.91C99.41 15.72 99.29 15.5 99.2 15.25C99.13 15 99.07 14.73 99.03 14.45C98.98 14.17 98.96 13.89 98.95 13.6C98.93 13.32 98.92 13.03 98.9 12.76C98.87 12.48 98.82 12.21 98.75 11.96C98.7 11.7 98.61 11.47 98.48 11.27C98.36 11.05 98.2 10.87 97.99 10.72C97.78 10.57 97.52 10.47 97.19 10.4L97.19 10.37C97.88 10.18 98.38 9.82 98.69 9.3C99.01 8.78 99.17 8.17 99.17 7.48Q99.17 6.53 98.74 5.86Q98.54 5.54 98.24 5.28Q97.33 4.48 95.7 4.48ZM115.68 15.91L117.04 15.91L117.04 4.48L115.68 4.48L115.68 8.74L115.64 8.74C115.5 8.49 115.31 8.29 115.08 8.13C114.87 7.96 114.64 7.83 114.4 7.73C114.15 7.62 113.91 7.55 113.66 7.51C113.42 7.46 113.19 7.44 112.97 7.44Q112.03 7.44 111.31 7.8Q110.87 8 110.52 8.31Q110.31 8.5 110.12 8.72C109.82 9.11 109.58 9.56 109.42 10.08Q109.2 10.87 109.2 11.75C109.2 12.33 109.28 12.89 109.44 13.41Q109.68 14.2 110.14 14.79Q110.29 14.98 110.47 15.14Q110.85 15.49 111.32 15.73C111.8 15.97 112.36 16.08 113 16.08Q113.87 16.08 114.59 15.78C115.07 15.58 115.42 15.25 115.64 14.79L115.68 14.79L115.68 15.91ZM84.13 7.64L82.49 7.64L82.49 5.16L81.13 5.16L81.13 7.64L79.72 7.64L79.72 8.84L81.13 8.84L81.13 14.1C81.13 14.48 81.16 14.79 81.24 15.03C81.31 15.26 81.42 15.44 81.57 15.57Q81.81 15.76 82.18 15.84C82.44 15.89 82.74 15.91 83.09 15.91L84.13 15.91L84.13 14.71L83.51 14.71C83.3 14.71 83.12 14.7 82.98 14.69C82.85 14.67 82.75 14.63 82.68 14.58C82.6 14.53 82.55 14.45 82.52 14.36C82.5 14.26 82.49 14.13 82.49 13.97L82.49 8.84L84.13 8.84L84.13 7.64ZM33.74 9.96L30.76 9.96L30.76 5.76L33.74 5.76Q35.04 5.76 35.63 6.31Q35.73 6.4 35.82 6.51Q36.24 7.01 36.24 7.86Q36.24 8.7 35.83 9.21Q35.74 9.33 35.63 9.43Q35.04 9.97 33.74 9.96ZM96.02 9.67C95.7 9.72 95.36 9.75 95.01 9.75L91.84 9.75L91.84 5.76L95.62 5.76Q96.67 5.76 97.15 6.29Q97.16 6.3 97.17 6.31C97.49 6.67 97.65 7.14 97.65 7.72Q97.65 8.34 97.43 8.74C97.29 9 97.09 9.2 96.85 9.36C96.61 9.51 96.34 9.61 96.02 9.67ZM40.63 7.64L39.35 7.64L39.35 15.91L40.71 15.91L40.71 12.23Q40.71 11.43 40.87 10.82C40.97 10.4 41.14 10.05 41.38 9.76C41.61 9.47 41.92 9.26 42.31 9.11C42.69 8.96 43.15 8.88 43.7 8.88L43.7 7.44C42.96 7.42 42.35 7.57 41.87 7.89C41.39 8.21 40.99 8.71 40.66 9.38L40.63 9.38L40.63 7.64ZM128.95 7.64L127.67 7.64L127.67 15.91L129.03 15.91L129.03 12.23C129.03 11.69 129.09 11.22 129.19 10.82C129.3 10.4 129.47 10.05 129.71 9.76C129.94 9.47 130.25 9.26 130.63 9.11C131.02 8.96 131.48 8.88 132.03 8.88L132.03 7.44C131.29 7.42 130.68 7.57 130.2 7.89C129.72 8.21 129.32 8.71 128.99 9.38L128.95 9.38L128.95 7.64ZM44.25 10.08C44.08 10.61 43.99 11.17 43.99 11.78C43.99 12.39 44.08 12.95 44.25 13.48C44.42 14 44.68 14.46 45.02 14.85Q45.09 14.93 45.16 15Q45.63 15.47 46.28 15.76C46.78 15.98 47.36 16.08 48.01 16.08Q49 16.08 49.74 15.76Q50.39 15.47 50.86 15Q50.93 14.93 51 14.85C51.34 14.46 51.6 14 51.77 13.48C51.94 12.95 52.02 12.39 52.02 11.78C52.02 11.17 51.94 10.61 51.77 10.08C51.6 9.55 51.34 9.09 51 8.71Q50.88 8.57 50.75 8.45Q50.31 8.04 49.74 7.78C49.25 7.56 48.67 7.44 48.01 7.44C47.36 7.44 46.78 7.56 46.28 7.78Q45.7 8.04 45.27 8.45Q45.14 8.57 45.02 8.71C44.68 9.09 44.42 9.55 44.25 10.08ZM76.95 9.08C77.29 9.36 77.51 9.77 77.62 10.29L79.03 10.29C78.97 9.8 78.85 9.38 78.64 9.03Q78.42 8.62 78.09 8.32Q77.98 8.22 77.86 8.13Q77.4 7.78 76.77 7.62C76.37 7.5 75.93 7.44 75.46 7.44C74.81 7.44 74.24 7.56 73.75 7.8C73.26 8.02 72.85 8.33 72.52 8.74C72.2 9.13 71.96 9.6 71.8 10.15C71.64 10.68 71.56 11.26 71.56 11.88C71.56 12.49 71.64 13.06 71.8 13.59C71.97 14.1 72.21 14.54 72.53 14.92C72.86 15.29 73.27 15.58 73.75 15.78C74.24 15.98 74.8 16.08 75.43 16.08C76.48 16.08 77.32 15.81 77.92 15.25C78.54 14.7 78.93 13.91 79.08 12.88L77.68 12.88C77.6 13.52 77.36 14.02 76.98 14.37Q76.95 14.4 76.91 14.43Q76.36 14.9 75.41 14.9Q74.77 14.9 74.31 14.64C74 14.47 73.75 14.25 73.56 13.97C73.36 13.68 73.22 13.36 73.12 13C73.04 12.63 73 12.26 73 11.88C73 11.46 73.04 11.06 73.12 10.68C73.21 10.28 73.35 9.93 73.54 9.64C73.74 9.34 74.01 9.1 74.34 8.92C74.67 8.73 75.08 8.64 75.57 8.64Q76.42 8.64 76.93 9.06Q76.94 9.07 76.95 9.08ZM107.4 16.08Q108.03 16.08 108.38 15.88L108.38 14.82C108.22 14.87 108.08 14.9 107.96 14.9Q107.74 14.9 107.64 14.79Q107.6 14.74 107.58 14.68C107.55 14.53 107.53 14.29 107.53 13.97L107.53 9.72C107.53 9.24 107.44 8.85 107.26 8.55C107.08 8.25 106.84 8.02 106.54 7.86C106.24 7.69 105.9 7.58 105.53 7.52C105.17 7.47 104.8 7.44 104.43 7.44C103.96 7.44 103.51 7.49 103.1 7.59C102.69 7.68 102.33 7.84 102.01 8.07C101.69 8.28 101.43 8.56 101.24 8.92Q100.95 9.44 100.92 10.21L102.28 10.21C102.31 9.6 102.52 9.19 102.91 8.98C103.29 8.76 103.77 8.64 104.35 8.64Q104.67 8.64 104.99 8.69C105.21 8.72 105.41 8.79 105.58 8.88C105.76 8.98 105.9 9.12 106.01 9.3C106.13 9.48 106.19 9.72 106.19 10.02C106.19 10.28 106.11 10.47 105.96 10.61C105.81 10.74 105.61 10.84 105.35 10.92Q104.97 11.01 104.46 11.08C104.13 11.11 103.78 11.16 103.4 11.24C103.05 11.3 102.7 11.38 102.36 11.48C102.03 11.57 101.73 11.72 101.47 11.91C101.21 12.09 101 12.33 100.84 12.63C100.68 12.93 100.6 13.31 100.6 13.78C100.6 14.2 100.67 14.55 100.81 14.85C100.96 15.14 101.16 15.37 101.4 15.56C101.65 15.74 101.94 15.87 102.27 15.96C102.61 16.04 102.97 16.08 103.34 16.08C103.91 16.08 104.45 15.99 104.94 15.8C105.44 15.59 105.88 15.27 106.25 14.82Q106.25 15.49 106.55 15.8C106.77 15.99 107.05 16.08 107.4 16.08ZM125.48 16.08Q126.1 16.08 126.46 15.88L126.46 14.82C126.3 14.87 126.16 14.9 126.04 14.9Q125.81 14.9 125.72 14.79Q125.68 14.74 125.66 14.68C125.62 14.53 125.61 14.29 125.61 13.97L125.61 9.72C125.61 9.24 125.52 8.85 125.34 8.55C125.16 8.25 124.92 8.02 124.62 7.86C124.32 7.69 123.98 7.58 123.61 7.52C123.25 7.47 122.88 7.44 122.5 7.44C122.04 7.44 121.59 7.49 121.18 7.59C120.77 7.68 120.41 7.84 120.09 8.07C119.77 8.28 119.51 8.56 119.32 8.92Q119.03 9.44 119 10.21L120.36 10.21C120.39 9.6 120.6 9.19 120.98 8.98C121.37 8.76 121.85 8.64 122.42 8.64Q122.74 8.64 123.06 8.69C123.29 8.72 123.49 8.79 123.66 8.88C123.84 8.98 123.98 9.12 124.09 9.3C124.21 9.48 124.26 9.72 124.26 10.02C124.26 10.28 124.19 10.47 124.04 10.61C123.89 10.74 123.69 10.84 123.43 10.92Q123.05 11.01 122.54 11.08C122.21 11.11 121.85 11.16 121.48 11.24C121.13 11.3 120.78 11.38 120.44 11.48C120.11 11.57 119.81 11.72 119.54 11.91C119.29 12.09 119.08 12.33 118.92 12.63C118.76 12.93 118.68 13.31 118.68 13.78C118.68 14.2 118.75 14.55 118.89 14.85C119.04 15.14 119.24 15.37 119.48 15.56C119.73 15.74 120.01 15.87 120.34 15.96C120.69 16.04 121.04 16.08 121.42 16.08C121.99 16.08 122.53 15.99 123.02 15.8C123.52 15.59 123.96 15.27 124.33 14.82Q124.33 15.49 124.63 15.8C124.85 15.99 125.13 16.08 125.48 16.08ZM68.68 15.91L69.96 15.91L69.96 7.64L68.6 7.64L68.6 12.31Q68.6 12.87 68.44 13.35C68.34 13.66 68.2 13.93 67.99 14.16C67.79 14.4 67.53 14.58 67.22 14.71C66.93 14.84 66.57 14.9 66.15 14.9C65.63 14.9 65.22 14.75 64.92 14.45C64.62 14.15 64.47 13.75 64.47 13.24L64.47 7.64L63.11 7.64L63.11 13.08Q63.11 13.75 63.24 14.31Q63.37 14.79 63.64 15.15Q63.68 15.2 63.72 15.25C63.94 15.52 64.24 15.73 64.6 15.88C64.96 16.01 65.42 16.08 65.96 16.08Q66.87 16.08 67.54 15.73Q67.59 15.71 67.63 15.68Q68.24 15.31 68.65 14.6L68.68 14.6L68.68 15.91ZM45.62 13.12C45.5 12.73 45.43 12.28 45.43 11.78C45.43 11.28 45.5 10.84 45.62 10.45Q45.83 9.86 46.18 9.46C46.42 9.19 46.69 8.99 47 8.85C47.32 8.71 47.66 8.64 48.01 8.64C48.36 8.64 48.69 8.71 49 8.85C49.32 8.99 49.6 9.19 49.83 9.46C50.07 9.73 50.25 10.06 50.38 10.45C50.52 10.84 50.58 11.28 50.58 11.78Q50.58 12.53 50.38 13.12Q50.18 13.7 49.83 14.1C49.6 14.36 49.32 14.55 49 14.69C48.69 14.83 48.36 14.9 48.01 14.9C47.66 14.9 47.32 14.83 47 14.69C46.69 14.55 46.42 14.36 46.18 14.1Q45.83 13.7 45.62 13.12ZM54.76 12.98C54.67 12.61 54.62 12.23 54.62 11.84C54.62 11.44 54.66 11.04 54.75 10.66Q54.88 10.08 55.16 9.64C55.36 9.34 55.61 9.1 55.93 8.92C56.25 8.73 56.64 8.64 57.1 8.64Q57.8 8.64 58.3 8.92C58.63 9.09 58.9 9.32 59.1 9.6C59.31 9.89 59.47 10.23 59.56 10.61C59.66 10.98 59.71 11.37 59.71 11.78Q59.71 12.03 59.68 12.28Q59.65 12.6 59.56 12.92C59.48 13.29 59.34 13.62 59.13 13.92C58.93 14.21 58.67 14.45 58.35 14.63C58.03 14.81 57.64 14.9 57.18 14.9C56.74 14.9 56.36 14.81 56.03 14.64C55.71 14.47 55.44 14.24 55.23 13.96C55.03 13.67 54.87 13.34 54.76 12.98ZM110.78 12.98C110.68 12.61 110.64 12.23 110.64 11.84C110.64 11.44 110.68 11.04 110.76 10.66C110.85 10.28 110.99 9.93 111.18 9.64C111.37 9.34 111.63 9.1 111.95 8.92C112.27 8.73 112.66 8.64 113.12 8.64C113.59 8.64 113.99 8.73 114.32 8.92C114.65 9.09 114.91 9.32 115.12 9.6C115.33 9.89 115.48 10.23 115.58 10.61C115.68 10.98 115.72 11.37 115.72 11.78C115.72 12.16 115.68 12.54 115.58 12.92C115.5 13.29 115.35 13.62 115.15 13.92C114.95 14.21 114.68 14.45 114.36 14.63C114.04 14.81 113.66 14.9 113.2 14.9C112.76 14.9 112.38 14.81 112.04 14.64C111.72 14.47 111.46 14.24 111.24 13.96C111.04 13.67 110.89 13.34 110.78 12.98ZM105.5 11.92C105.78 11.86 106 11.76 106.17 11.64L106.17 13.03C106.17 13.22 106.12 13.43 106.03 13.65C105.93 13.86 105.78 14.07 105.58 14.26C105.38 14.44 105.11 14.6 104.79 14.72C104.47 14.84 104.09 14.9 103.64 14.9C103.43 14.9 103.23 14.88 103.03 14.84C102.84 14.79 102.67 14.72 102.52 14.63C102.38 14.53 102.27 14.41 102.17 14.26C102.09 14.1 102.04 13.91 102.04 13.68C102.04 13.34 102.12 13.08 102.27 12.88C102.43 12.68 102.63 12.53 102.87 12.42C103.12 12.31 103.4 12.24 103.71 12.2C104.02 12.14 104.32 12.1 104.62 12.07C104.93 12.02 105.22 11.98 105.5 11.92ZM123.58 11.92C123.85 11.86 124.08 11.76 124.25 11.64L124.25 13.03C124.25 13.22 124.2 13.43 124.1 13.65C124.01 13.86 123.86 14.07 123.66 14.26C123.45 14.44 123.19 14.6 122.87 14.72C122.55 14.84 122.17 14.9 121.72 14.9C121.51 14.9 121.3 14.88 121.11 14.84C120.92 14.79 120.75 14.72 120.6 14.63C120.46 14.53 120.34 14.41 120.25 14.26C120.16 14.1 120.12 13.91 120.12 13.68C120.12 13.34 120.2 13.08 120.34 12.88C120.5 12.68 120.71 12.53 120.95 12.42C121.2 12.31 121.48 12.24 121.78 12.2C122.09 12.14 122.4 12.1 122.7 12.07C123.01 12.02 123.3 11.98 123.58 11.92Z" fill="#0B0B0B" fill-opacity="1.000000" fill-rule="evenodd"/>
</svg>
