<svg width="21.5" height="21.5" fill="none" xmlns="http://www.w3.org/2000/svg"><path d="M8.24 1.33c1.56-.78 3.45-.78 5.01 0l6.71 3.4c1.05.53 1.05 1.9 0 2.43l-6.71 3.4c-1.56.78-3.45.78-5.01 0l-6.71-3.4c-1.05-.53-1.05-1.9 0-2.43l6.71-3.4zm8.86 6.94 2.36 1.15.5.25c1.05.53 1.05 1.91 0 2.44l-6.71 3.39c-1.56.79-3.45.79-5.01 0l-6.71-3.39c-1.05-.53-1.05-1.91 0-2.44l.5-.25 2.23-1.15m13.35 5.12 2.15.97c1.11.51 1.14 1.92.06 2.47l-6.57 3.33c-1.56.78-3.45.78-5.01 0l-6.48-3.28c-1.1-.56-1.03-2.01.11-2.49l2.39-1" stroke="#1B31FF" stroke-width="1.5"/></svg>