<svg width="24" height="24" fill="none" xmlns="http://www.w3.org/2000/svg"><path d="M17.24 18.85c-.81 0-1.57.31-2.13.88l-1.7 1.68c-.78.77-2.06.77-2.83 0l-1.72-1.68a2.95 2.95 0 0 0-2.11-.88H6c-1.67 0-3-1.33-3-2.96V4.97C3 3.33 4.33 2 6 2h12c1.66 0 3 1.33 3 2.97v10.9c0 1.65-1.34 2.98-3 2.98h-.76z" stroke="#1B31FF" stroke-width="1.5" stroke-linejoin="round"/><path d="M11.91 8.94A1.943 1.943 0 0 1 10.03 7c0-1.09.87-1.96 1.95-1.96s1.95.88 1.95 1.96c.01 1.05-.82 1.91-1.87 1.94h-.15zM9.25 15.18c1.5 1.02 3.99 1.02 5.5 0 1.33-.89 1.33-2.33 0-3.22-1.51-1-3.99-1-5.5 0-1.34.89-1.34 2.33 0 3.22z" stroke="#1B31FF" stroke-width="1.5" stroke-linejoin="round"/></svg>