<svg width="24.000000" height="24.000000" viewBox="0 0 24 24" fill="none" xmlns="http://www.w3.org/2000/svg" xmlns:xlink="http://www.w3.org/1999/xlink">
	<desc>
			Created with Pixso.
	</desc>
	<defs/>
	<path id="Vector" d="M17.24 18.85C16.43 18.85 15.67 19.16 15.11 19.73L13.41 21.41C12.63 22.18 11.35 22.18 10.58 21.41L8.86 19.73C8.31 19.16 7.53 18.85 6.75 18.85L6 18.85C4.33 18.85 3 17.52 3 15.89L3 4.97C3 3.33 4.33 2 6 2L18 2C19.66 2 21 3.33 21 4.97L21 15.87C21 17.52 19.66 18.85 18 18.85L17.24 18.85Z" stroke="#1B31FF" stroke-opacity="1.000000" stroke-width="1.500000" stroke-linejoin="round"/>
	<path id="Vector" d="M11.91 8.94C10.86 8.9 10.03 8.05 10.03 7C10.03 5.91 10.9 5.04 11.98 5.04C13.06 5.04 13.93 5.92 13.93 7C13.94 8.05 13.11 8.91 12.06 8.94C12.02 8.94 11.96 8.94 11.91 8.94Z" stroke="#1B31FF" stroke-opacity="1.000000" stroke-width="1.500000" stroke-linejoin="round"/>
	<path id="Vector" d="M9.25 15.18C10.75 16.2 13.24 16.2 14.75 15.18C16.08 14.29 16.08 12.85 14.75 11.96C13.24 10.96 10.76 10.96 9.25 11.96C7.91 12.85 7.91 14.29 9.25 15.18Z" stroke="#1B31FF" stroke-opacity="1.000000" stroke-width="1.500000" stroke-linejoin="round"/>
	<g opacity="0.000000"/>
</svg>
