<svg width="13.334" height="13.333" viewBox="0 0 13.334 13.334" fill="none" xmlns="http://www.w3.org/2000/svg"><path d="M6.66 0C2.98 0 0 2.98 0 6.66s2.98 6.67 6.66 6.67 6.67-2.99 6.67-6.67C13.33 2.98 10.34 0 6.66 0zm3.09 4.53C9.66 5.58 9.22 8.14 9 9.32c-.09.5-.28.67-.45.69-.39.03-.68-.26-1.05-.5-.59-.39-.92-.63-1.49-1-.66-.43-.24-.68.15-1.06.09-.1 1.8-1.66 1.84-1.79 0-.03 0-.05-.01-.07 0-.02-.01-.04-.03-.05-.04-.04-.09-.02-.14-.02-.06.02-.99.64-2.81 1.86-.27.18-.51.28-.72.27-.24-.01-.7-.13-1.04-.25-.42-.13-.74-.2-.72-.44.02-.12.19-.24.5-.36 1.95-.85 3.24-1.41 3.88-1.68 1.86-.77 2.24-.9 2.49-.9.06 0 .18.01.26.08.07.05.09.12.09.17 0 .04.01.16 0 .26z" fill="#FFF"/></svg>