<svg width="13.333984" height="13.333496" viewBox="0 0 13.334 13.3335" fill="none" xmlns="http://www.w3.org/2000/svg" xmlns:xlink="http://www.w3.org/1999/xlink">
	<desc>
			Created with Pixso.
	</desc>
	<defs/>
	<path id="Vector" d="M6.66 0C2.98 0 0 2.98 0 6.66C0 10.34 2.98 13.33 6.66 13.33C10.34 13.33 13.33 10.34 13.33 6.66C13.33 2.98 10.34 0 6.66 0ZM9.75 4.53C9.66 5.58 9.22 8.14 9 9.32C8.91 9.82 8.72 9.99 8.55 10.01C8.16 10.04 7.87 9.75 7.5 9.51C6.91 9.12 6.58 8.88 6.01 8.51C5.35 8.08 5.77 7.83 6.16 7.45C6.25 7.35 7.96 5.79 8 5.66C8 5.63 8 5.61 7.99 5.59C7.99 5.57 7.98 5.55 7.96 5.54C7.92 5.5 7.87 5.52 7.82 5.52C7.76 5.54 6.83 6.16 5.01 7.38C4.74 7.56 4.5 7.66 4.29 7.65C4.05 7.64 3.59 7.52 3.25 7.4C2.83 7.27 2.51 7.2 2.53 6.96C2.55 6.84 2.72 6.72 3.03 6.6C4.98 5.75 6.27 5.19 6.91 4.92C8.77 4.15 9.15 4.02 9.4 4.02C9.46 4.02 9.58 4.03 9.66 4.1C9.73 4.15 9.75 4.22 9.75 4.27C9.75 4.31 9.76 4.43 9.75 4.53Z" fill="#FFFFFF" fill-opacity="1.000000" fill-rule="nonzero"/>
</svg>
