<svg width="16.000000" height="16.000000" viewBox="0 0 16 16" fill="none" xmlns="http://www.w3.org/2000/svg" xmlns:xlink="http://www.w3.org/1999/xlink">
	<desc>
			Created with Pixso.
	</desc>
	<defs>
		<clipPath id="clip289_572">
			<rect id="Icons" rx="0.000000" width="15.000000" height="15.000000" transform="translate(0.500000 0.500000)" fill="white" fill-opacity="0"/>
		</clipPath>
	</defs>
	<rect id="Icons" rx="0.000000" width="15.000000" height="15.000000" transform="translate(0.500000 0.500000)" fill="#FFFFFF" fill-opacity="0"/>
	<g clip-path="url(#clip289_572)">
		<path id="Vector" d="M13.22 5.62L6.82 12.02C6.76 12.08 6.7 12.12 6.62 12.15C6.55 12.18 6.47 12.2 6.39 12.2C6.32 12.2 6.24 12.18 6.16 12.15C6.09 12.12 6.02 12.08 5.97 12.02L3.17 9.22C3.11 9.16 3.07 9.1 3.04 9.02C3.01 8.95 2.99 8.87 2.99 8.79C2.99 8.72 3.01 8.64 3.04 8.56C3.07 8.49 3.11 8.43 3.17 8.37C3.23 8.31 3.29 8.27 3.36 8.24C3.44 8.21 3.51 8.19 3.59 8.19C3.67 8.19 3.75 8.21 3.82 8.24C3.9 8.27 3.96 8.31 4.02 8.37L6.4 10.75L12.37 4.77C12.48 4.66 12.64 4.59 12.8 4.59C12.95 4.59 13.11 4.66 13.22 4.77C13.33 4.88 13.4 5.04 13.4 5.2C13.4 5.36 13.33 5.51 13.22 5.62L13.22 5.62Z" fill="#000000" fill-opacity="1.000000" fill-rule="nonzero"/>
	</g>
</svg>
