<svg width="24" height="24" fill="none" xmlns="http://www.w3.org/2000/svg"><circle r="3.404" transform="matrix(-1 0 0 1 12.213 8.404)" stroke="#1B31FF" stroke-width="1.5"/><path d="M18.16 17.97c0 1.01-.89 1.79-1.89 1.65l-.33-.05c-2.48-.35-4.99-.35-7.46 0l-.33.05c-1 .14-1.9-.64-1.9-1.65v-1.12c0-.73.46-1.38 1.15-1.63 3.11-1.11 6.51-1.11 9.62 0 .69.25 1.14.9 1.14 1.63v1.12z" stroke="#1B31FF" stroke-width="1.5"/><path d="M17.32 11.9a2.676 2.676 0 0 0 0-5.35M19.44 14.13c.56.11 1.11.26 1.65.45.54.2.91.71.91 1.29v.88c0 .79-.71 1.4-1.49 1.29l-.26-.04M6.67 11.9a2.676 2.676 0 0 1 0-5.35M4.55 14.13c-.56.11-1.11.26-1.65.45-.54.2-.9.71-.9 1.29v.88c0 .79.7 1.4 1.48 1.29l.27-.04" stroke="#1B31FF" stroke-width="1.5" stroke-linecap="round"/></svg>