<svg width="44" height="44" fill="none" xmlns="http://www.w3.org/2000/svg"><rect rx="9" width="44" height="44" fill="#F0F3F8" style="mix-blend-mode:normal"/><path d="m16.67 22 3.21 3.22 6.44-6.45" stroke="#1B31FF" stroke-width="1.8" stroke-linejoin="round" stroke-linecap="round"/><path d="m23.19 9.26 2.11 1.82c.4.34 1.14.62 1.68.62h2.26c1.42 0 2.58 1.16 2.58 2.58v2.26c0 .52.27 1.28.62 1.68l1.81 2.11c.79.92.79 2.43 0 3.36l-1.81 2.11c-.35.4-.62 1.14-.62 1.68v2.26c0 1.42-1.16 2.58-2.58 2.58h-2.26c-.52 0-1.28.28-1.68.62l-2.11 1.82c-.92.78-2.43.78-3.36 0l-2.11-1.82c-.4-.34-1.14-.62-1.68-.62h-2.3c-1.42 0-2.58-1.16-2.58-2.58v-2.28c0-.52-.28-1.26-.61-1.66l-1.8-2.12c-.77-.92-.77-2.42 0-3.34l1.8-2.12c.33-.4.61-1.14.61-1.66v-2.3c0-1.41 1.16-2.57 2.58-2.57h2.3c.52 0 1.28-.28 1.68-.63l2.11-1.8c.92-.79 2.42-.79 3.36 0z" stroke="#1B31FF" stroke-width="1.8" stroke-linejoin="round"/></svg>