<svg width="48.000000" height="48.000000" viewBox="0 0 48 48" fill="none" xmlns="http://www.w3.org/2000/svg" xmlns:xlink="http://www.w3.org/1999/xlink">
	<desc>
			Created with Pixso.
	</desc>
	<defs/>
	<path id="Vector" d="M16.76 24L21.58 28.84L31.24 19.16" stroke="#1B31FF" stroke-opacity="1.000000" stroke-width="2.200000" stroke-linejoin="round" stroke-linecap="round"/>
	<path id="Vector" d="M26.54 4.89L29.7 7.62C30.3 8.14 31.42 8.56 32.22 8.56L35.62 8.56C37.74 8.56 39.48 10.3 39.48 12.41L39.48 15.82C39.48 16.6 39.9 17.74 40.42 18.34L43.14 21.5C44.32 22.88 44.32 25.14 43.14 26.54L40.42 29.7C39.9 30.3 39.48 31.41 39.48 32.22L39.48 35.62C39.48 37.74 37.74 39.48 35.62 39.48L32.22 39.48C31.44 39.48 30.3 39.89 29.7 40.41L26.54 43.14C25.16 44.32 22.9 44.32 21.5 43.14L18.34 40.41C17.74 39.89 16.62 39.48 15.82 39.48L12.36 39.48C10.24 39.48 8.5 37.74 8.5 35.62L8.5 32.2C8.5 31.41 8.08 30.3 7.58 29.7L4.88 26.52C3.72 25.14 3.72 22.89 4.88 21.52L7.58 18.34C8.08 17.74 8.5 16.62 8.5 15.84L8.5 12.39C8.5 10.28 10.24 8.54 12.36 8.54L15.82 8.54C16.6 8.54 17.74 8.12 18.34 7.6L21.5 4.89C22.88 3.72 25.14 3.72 26.54 4.89Z" stroke="#1B31FF" stroke-opacity="1.000000" stroke-width="2.200000" stroke-linejoin="round"/>
	<g opacity="0.000000"/>
</svg>
