<svg width="44.000000" height="44.000000" viewBox="0 0 44 44" fill="none" xmlns="http://www.w3.org/2000/svg" xmlns:xlink="http://www.w3.org/1999/xlink">
	<desc>
			Created with Pixso.
	</desc>
	<defs/>
	<g style="mix-blend-mode:normal">
		<rect id="Rectangle 39" rx="9.000000" width="44.000000" height="44.000000" fill="#F0F3F8" fill-opacity="1.000000"/>
	</g>
	<path id="Vector" d="M16.67 22L19.88 25.22L26.32 18.77" stroke="#1B31FF" stroke-opacity="1.000000" stroke-width="1.800000" stroke-linejoin="round" stroke-linecap="round"/>
	<path id="Vector" d="M23.19 9.26L25.3 11.08C25.7 11.42 26.44 11.7 26.98 11.7L29.24 11.7C30.66 11.7 31.82 12.86 31.82 14.28L31.82 16.54C31.82 17.06 32.09 17.82 32.44 18.22L34.25 20.33C35.04 21.25 35.04 22.76 34.25 23.69L32.44 25.8C32.09 26.2 31.82 26.94 31.82 27.48L31.82 29.74C31.82 31.16 30.66 32.32 29.24 32.32L26.98 32.32C26.46 32.32 25.7 32.6 25.3 32.94L23.19 34.76C22.27 35.54 20.76 35.54 19.83 34.76L17.72 32.94C17.32 32.6 16.58 32.32 16.04 32.32L13.74 32.32C12.32 32.32 11.16 31.16 11.16 29.74L11.16 27.46C11.16 26.94 10.88 26.2 10.55 25.8L8.75 23.68C7.98 22.76 7.98 21.26 8.75 20.34L10.55 18.22C10.88 17.82 11.16 17.08 11.16 16.56L11.16 14.26C11.16 12.85 12.32 11.69 13.74 11.69L16.04 11.69C16.56 11.69 17.32 11.41 17.72 11.06L19.83 9.26C20.75 8.47 22.25 8.47 23.19 9.26Z" stroke="#1B31FF" stroke-opacity="1.000000" stroke-width="1.800000" stroke-linejoin="round"/>
	<g opacity="0.000000"/>
</svg>
